<svg width="24" height="24" viewBox="0 0 24 24" fill="none" xmlns="http://www.w3.org/2000/svg">
<path d="M5.63731 7.5727C5.87432 7.233 5.79108 6.76548 5.45138 6.52846C5.11168 6.29145 4.64416 6.37469 4.40714 6.71439L5.02222 7.14354L5.63731 7.5727ZM6.71439 4.40714C6.37469 4.64416 6.29145 5.11168 6.52846 5.45138C6.76548 5.79108 7.233 5.87432 7.5727 5.63731L7.14354 5.02222L6.71439 4.40714ZM12.75 8C12.75 7.58579 12.4142 7.25 12 7.25C11.5858 7.25 11.25 7.58579 11.25 8H12H12.75ZM11.25 16C11.25 16.4142 11.5858 16.75 12 16.75C12.4142 16.75 12.75 16.4142 12.75 16H12H11.25ZM16 12.75C16.4142 12.75 16.75 12.4142 16.75 12C16.75 11.5858 16.4142 11.25 16 11.25V12V12.75ZM8 11.25C7.58579 11.25 7.25 11.5858 7.25 12C7.25 12.4142 7.58579 12.75 8 12.75V12V11.25ZM5.98959 18.0104L6.51992 17.4801C3.8239 14.784 3.52902 10.5944 5.63731 7.5727L5.02222 7.14354L4.40714 6.71439C1.89017 10.3218 2.24021 15.3217 5.45926 18.5407L5.98959 18.0104ZM18.0104 18.0104L17.4801 17.4801C14.4535 20.5066 9.54649 20.5066 6.51992 17.4801L5.98959 18.0104L5.45926 18.5407C9.07161 22.1531 14.9284 22.1531 18.5407 18.5407L18.0104 18.0104ZM18.0104 5.98959L17.4801 6.51992C20.5066 9.54649 20.5066 14.4535 17.4801 17.4801L18.0104 18.0104L18.5407 18.5407C22.1531 14.9284 22.1531 9.07161 18.5407 5.45926L18.0104 5.98959ZM7.14354 5.02222L7.5727 5.63731C10.5944 3.52902 14.784 3.8239 17.4801 6.51992L18.0104 5.98959L18.5407 5.45926C15.3217 2.24021 10.3218 1.89017 6.71439 4.40714L7.14354 5.02222ZM12 8H11.25V16H12H12.75V8H12ZM16 12V11.25L8 11.25V12V12.75L16 12.75V12Z" fill="#333333" fill-opacity="0.53"/>
</svg>
