<svg width="24" height="24" viewBox="0 0 24 24" fill="none" xmlns="http://www.w3.org/2000/svg">
<path d="M4 10L3.46967 10.5303L2.93934 10L3.46967 9.46967L4 10ZM20.75 18C20.75 18.4142 20.4142 18.75 20 18.75C19.5858 18.75 19.25 18.4142 19.25 18L20 18L20.75 18ZM9 15L8.46967 15.5303L3.46967 10.5303L4 10L4.53033 9.46967L9.53033 14.4697L9 15ZM4 10L3.46967 9.46967L8.46967 4.46967L9 5L9.53033 5.53033L4.53033 10.5303L4 10ZM4 10L4 9.25L14 9.25L14 10L14 10.75L4 10.75L4 10ZM20 16L20.75 16L20.75 18L20 18L19.25 18L19.25 16L20 16ZM14 10L14 9.25C17.7279 9.25 20.75 12.2721 20.75 16L20 16L19.25 16C19.25 13.1005 16.8995 10.75 14 10.75L14 10Z" fill="black"/>
</svg>
