<svg width="24" height="24" viewBox="0 0 24 24" fill="none" xmlns="http://www.w3.org/2000/svg">
<path d="M15 3H9C6.79086 3 5 4.79086 5 7V15" stroke="black" stroke-width="1.5"/>
<path d="M13.5 6.75C14.69 6.75 15.5197 6.75163 16.1553 6.82324C16.7758 6.89319 17.1185 7.02175 17.3701 7.21484C17.526 7.33446 17.6655 7.47403 17.7852 7.62988C17.9782 7.88152 18.1068 8.22423 18.1768 8.84473C18.2484 9.48029 18.25 10.31 18.25 11.5V15.5C18.25 16.69 18.2484 17.5197 18.1768 18.1553C18.1068 18.7758 17.9782 19.1185 17.7852 19.3701C17.6655 19.526 17.526 19.6655 17.3701 19.7852C17.1185 19.9782 16.7758 20.1068 16.1553 20.1768C15.5197 20.2484 14.69 20.25 13.5 20.25C12.31 20.25 11.4803 20.2484 10.8447 20.1768C10.2242 20.1068 9.88152 19.9782 9.62988 19.7852C9.47403 19.6655 9.33446 19.526 9.21484 19.3701C9.02175 19.1185 8.89319 18.7758 8.82324 18.1553C8.75163 17.5197 8.75 16.69 8.75 15.5V11.5C8.75 10.31 8.75163 9.48029 8.82324 8.84473C8.89319 8.22423 9.02175 7.88152 9.21484 7.62988C9.33446 7.47403 9.47403 7.33446 9.62988 7.21484C9.88152 7.02175 10.2242 6.89319 10.8447 6.82324C11.4803 6.75163 12.31 6.75 13.5 6.75Z" stroke="black" stroke-width="1.5"/>
</svg>
