<svg width="24" height="24" viewBox="0 0 24 24" fill="none" xmlns="http://www.w3.org/2000/svg">
<path d="M15 5.66406C15.437 5.66406 15.7822 5.85079 16.0674 6.06836C16.3351 6.27268 16.6261 6.56559 16.9443 6.88379L17.1162 7.05566C17.4344 7.37386 17.7273 7.66487 17.9316 7.93262C18.1492 8.21777 18.3359 8.56297 18.3359 9C18.3359 9.43702 18.1492 9.78223 17.9316 10.0674C17.7273 10.3351 17.4344 10.6261 17.1162 10.9443L9.92188 18.1387C9.75541 18.3051 9.57789 18.4914 9.35059 18.6201C9.12333 18.7487 8.87283 18.8052 8.64453 18.8623L6.02637 19.5156L6.02344 19.5176L5.99023 19.5254C5.83421 19.5644 5.63429 19.617 5.46289 19.6338C5.28218 19.6515 4.92581 19.6524 4.63672 19.3633C4.34762 19.0742 4.34853 18.7178 4.36621 18.5371C4.38298 18.3657 4.4356 18.1658 4.47461 18.0098L5.1377 15.3555C5.19477 15.1272 5.25131 14.8767 5.37988 14.6494C5.50858 14.4221 5.69486 14.2446 5.86133 14.0781L13.0557 6.88379C13.3739 6.56559 13.6649 6.27268 13.9326 6.06836C14.2178 5.85079 14.563 5.66406 15 5.66406Z" stroke="black" stroke-width="1.5"/>
<path d="M12.5 7.5L16.5 11.5" stroke="#7E869E" stroke-opacity="0.25" stroke-width="1.5"/>
</svg>
