<svg width="24" height="24" viewBox="0 0 24 24" fill="none" xmlns="http://www.w3.org/2000/svg">
<path fill-rule="evenodd" clip-rule="evenodd" d="M16.2051 5.26482C17.8609 4.71289 18.689 4.43718 19.126 4.8742C19.5628 5.31125 19.2872 6.1395 18.7354 7.79509L15.8975 16.3078C15.1131 18.6608 14.7207 19.8379 14 19.8381C13.2792 19.8381 12.8869 18.661 12.1025 16.3078L11.3535 14.0597L15.707 9.7072C16.0975 9.31673 16.0974 8.68367 15.707 8.29314C15.3165 7.90262 14.6835 7.90263 14.293 8.29314L9.93945 12.6467L7.69238 11.8976C5.33933 11.1133 4.16227 10.7208 4.16211 10.0002C4.16211 9.27941 5.33917 8.88712 7.69238 8.10271L16.2051 5.26482Z" fill="black"/>
</svg>
