<svg width="23" height="15" viewBox="0 0 23 15" fill="none" xmlns="http://www.w3.org/2000/svg">
<g clip-path="url(#clip0_46_4520)">
<path d="M0 0H23V15H0V0Z" fill="#41662E"/>
<path d="M11.5 0H23V15H11.5V0Z" fill="white"/>
<path d="M15.341 4.62793L14.0203 6.40349L11.8865 5.72667L13.2072 7.50223L11.8865 9.2778L14.0203 8.60097L15.341 10.3765V8.17906L17.4748 7.49784L15.341 6.82101V4.62793Z" fill="#D80027"/>
<path d="M13.9213 12.1609C11.2934 12.1609 9.15962 10.0733 9.15962 7.50221C9.15962 4.93116 11.2934 2.84355 13.9213 2.84355C14.7434 2.84355 15.5116 3.04572 16.1854 3.40171C15.1297 2.39087 13.6833 1.76678 12.0885 1.76678C8.85415 1.76678 6.23071 4.33344 6.23071 7.49781C6.23071 10.6622 8.85415 13.2288 12.0885 13.2288C13.6833 13.2288 15.1297 12.6048 16.1854 11.5939C15.5161 11.9543 14.7434 12.1609 13.9213 12.1609V12.1609Z" fill="#D80027"/>
</g>
<defs>
<clipPath id="clip0_46_4520">
<rect width="23" height="15" fill="white"/>
</clipPath>
</defs>
</svg>
