<svg width="23" height="15" viewBox="0 0 23 15" fill="none" xmlns="http://www.w3.org/2000/svg">
<g clip-path="url(#clip0_46_4489)">
<path d="M0 0H23V15H0V0Z" fill="white"/>
<path d="M0 0H23V1.15351H0V0ZM0 2.30702H23V3.46053H0V2.30702ZM0 4.61404H23V5.76754H0V4.61404ZM0 6.92105H23V8.07456H0V6.92105ZM0 9.23246H23V10.386H0V9.23246ZM0 11.5395H23V12.693H0V11.5395ZM0 13.8465H23V15H0V13.8465Z" fill="#D80027"/>
<path d="M0 0H11.5V8.07456H0V0Z" fill="#2E52B2"/>
<path d="M2.14298 6.09208L1.96364 5.53068L1.76637 6.09208H1.17456L1.65429 6.4298L1.47495 6.99121L1.96364 6.64472L2.43889 6.99121L2.25507 6.4298L2.74376 6.09208H2.14298ZM4.66715 6.09208L4.48333 5.53068L4.29503 6.09208H3.70322L4.18294 6.4298L4.00361 6.99121L4.48333 6.64472L4.96754 6.99121L4.78821 6.4298L5.26793 6.09208H4.66715ZM7.20029 6.09208L7.0075 5.53068L6.82817 6.09208H6.2229L6.71608 6.4298L6.52778 6.99121L7.0075 6.64472L7.50068 6.99121L7.31238 6.4298L7.7921 6.09208H7.20029ZM9.71998 6.09208L9.54064 5.53068L9.35234 6.09208H8.75604L9.24025 6.4298L9.06092 6.99121L9.54064 6.64472L10.0249 6.99121L9.83207 6.4298L10.3252 6.09208H9.71998ZM4.48333 3.30261L4.29503 3.86401H3.70322L4.18294 4.21051L4.00361 4.76314L4.48333 4.42103L4.96754 4.76314L4.78821 4.21051L5.26793 3.86401H4.66715L4.48333 3.30261ZM1.96364 3.30261L1.76637 3.86401H1.17456L1.65429 4.21051L1.47495 4.76314L1.96364 4.42103L2.43889 4.76314L2.25507 4.21051L2.74376 3.86401H2.14298L1.96364 3.30261ZM7.0075 3.30261L6.82817 3.86401H6.2229L6.71608 4.21051L6.52778 4.76314L7.0075 4.42103L7.50068 4.76314L7.31238 4.21051L7.7921 3.86401H7.20029L7.0075 3.30261ZM9.54064 3.30261L9.35234 3.86401H8.75604L9.24025 4.21051L9.06092 4.76314L9.54064 4.42103L10.0249 4.76314L9.83207 4.21051L10.3252 3.86401H9.71998L9.54064 3.30261ZM1.96364 1.08331L1.76637 1.63594H1.17456L1.65429 1.98244L1.47495 2.53945L1.96364 2.19296L2.43889 2.53945L2.25507 1.98244L2.74376 1.63594H2.14298L1.96364 1.08331ZM4.48333 1.08331L4.29503 1.63594H3.70322L4.18294 1.98244L4.00361 2.53945L4.48333 2.19296L4.96754 2.53945L4.78821 1.98244L5.26793 1.63594H4.66715L4.48333 1.08331ZM7.0075 1.08331L6.82817 1.63594H6.2229L6.71608 1.98244L6.52778 2.53945L7.0075 2.19296L7.50068 2.53945L7.31238 1.98244L7.7921 1.63594H7.20029L7.0075 1.08331ZM9.54064 1.08331L9.35234 1.63594H8.75604L9.24025 1.98244L9.06092 2.53945L9.54064 2.19296L10.0249 2.53945L9.83207 1.98244L10.3252 1.63594H9.71998L9.54064 1.08331Z" fill="white"/>
</g>
<defs>
<clipPath id="clip0_46_4489">
<rect width="23" height="15" fill="white"/>
</clipPath>
</defs>
</svg>
