<svg width="24" height="24" viewBox="0 0 24 24" fill="none" xmlns="http://www.w3.org/2000/svg">
<path d="M15 17.6396L15.75 17.6397V17.6396H15ZM14.6582 18.1143L14.8953 18.8258L14.8954 18.8258L14.6582 18.1143ZM9.6582 19.7803L9.42112 19.0687L9.42103 19.0688L9.6582 19.7803ZM9 19.3066H8.25V19.3071L9 19.3066ZM8.70711 11.7071L9.23744 11.1768L8.70711 11.7071ZM15.2929 11.7071L14.7626 11.1768L15.2929 11.7071ZM19.7071 7.29289L20.2374 7.82322L19.7071 7.29289ZM19.7071 7.29289L19.1768 6.76256L14.7626 11.1768L15.2929 11.7071L15.8232 12.2374L20.2374 7.82322L19.7071 7.29289ZM15 12.4142H14.25V17.6396H15H15.75V12.4142H15ZM15 17.6396L14.25 17.6396C14.25 17.5327 14.3183 17.437 14.421 17.4027L14.6582 18.1143L14.8954 18.8258C15.4065 18.6554 15.75 18.177 15.75 17.6397L15 17.6396ZM14.6582 18.1143L14.4211 17.4027L9.42112 19.0687L9.6582 19.7803L9.89529 20.4918L14.8953 18.8258L14.6582 18.1143ZM9.6582 19.7803L9.42103 19.0688C9.58195 19.0151 9.74989 19.1346 9.75 19.3061L9 19.3066L8.25 19.3071C8.25057 20.1609 9.08714 20.7612 9.89537 20.4918L9.6582 19.7803ZM9 19.3066H9.75V12.4142H9H8.25V19.3066H9ZM8.70711 11.7071L9.23744 11.1768L4.82322 6.76256L4.29289 7.29289L3.76256 7.82322L8.17678 12.2374L8.70711 11.7071ZM4 6.58579H4.75V5H4H3.25V6.58579H4ZM5 4V4.75H19V4V3.25H5V4ZM20 5H19.25V6.58579H20H20.75V5H20ZM19 4V4.75C19.1381 4.75 19.25 4.86193 19.25 5H20H20.75C20.75 4.0335 19.9665 3.25 19 3.25V4ZM4 5H4.75C4.75 4.86193 4.86193 4.75 5 4.75V4V3.25C4.0335 3.25 3.25 4.0335 3.25 5H4ZM4.29289 7.29289L4.82322 6.76256C4.77634 6.71568 4.75 6.65209 4.75 6.58579H4H3.25C3.25 7.04992 3.43437 7.49503 3.76256 7.82322L4.29289 7.29289ZM9 12.4142H9.75C9.75 11.9501 9.56563 11.505 9.23744 11.1768L8.70711 11.7071L8.17678 12.2374C8.22366 12.2843 8.25 12.3479 8.25 12.4142H9ZM15.2929 11.7071L14.7626 11.1768C14.4344 11.505 14.25 11.9501 14.25 12.4142H15H15.75C15.75 12.3479 15.7763 12.2843 15.8232 12.2374L15.2929 11.7071ZM19.7071 7.29289L20.2374 7.82322C20.5656 7.49503 20.75 7.04992 20.75 6.58579H20H19.25C19.25 6.65209 19.2237 6.71568 19.1768 6.76256L19.7071 7.29289Z" fill="white"/>
</svg>
