<svg width="25" height="26" viewBox="0 0 25 26" fill="none" xmlns="http://www.w3.org/2000/svg">
<path d="M25 13.2955C25 12.3736 24.9188 11.4873 24.7681 10.6364H12.7551V15.6709H19.6197C19.3182 17.29 18.4137 18.6609 17.0571 19.5827V22.8564H21.1967C23.6085 20.5873 25 17.2545 25 13.2955Z" fill="#4285F4"/>
<path d="M12.7551 26C16.199 26 19.0863 24.8418 21.1967 22.8564L17.0571 19.5827C15.9207 20.3627 14.4712 20.8355 12.7551 20.8355C9.43878 20.8355 6.62106 18.5545 5.61225 15.4818H1.36827V18.8382C3.46707 23.0809 7.76902 26 12.7551 26Z" fill="#34A853"/>
<path d="M5.61225 15.47C5.35714 14.69 5.2064 13.8627 5.2064 13C5.2064 12.1373 5.35714 11.31 5.61225 10.53V7.17364H1.36827C0.498609 8.92273 0 10.8964 0 13C0 15.1036 0.498609 17.0773 1.36827 18.8264L4.67301 16.2027L5.61225 15.47Z" fill="#FBBC05"/>
<path d="M12.7551 5.17636C14.6336 5.17636 16.3033 5.83818 17.6368 7.11455L21.2894 3.39182C19.0747 1.28818 16.199 0 12.7551 0C7.76902 0 3.46707 2.91909 1.36827 7.17364L5.61225 10.53C6.62106 7.45727 9.43878 5.17636 12.7551 5.17636Z" fill="#EA4335"/>
</svg>
