<svg width="32" height="32" viewBox="0 0 32 32" fill="none" xmlns="http://www.w3.org/2000/svg">
<rect width="32" height="32" rx="12" fill="url(#paint0_linear_52_987)"/>
<path d="M16.1071 11.4352C13.5274 11.4271 11.4312 13.5152 11.423 16.0949C11.4149 18.6746 13.503 20.7709 16.0827 20.779C18.6624 20.7871 20.7587 18.699 20.7668 16.1193C20.7749 13.5396 18.6868 11.4434 16.1071 11.4352ZM16.0827 13.0765C17.7565 13.0684 19.1174 14.4212 19.1255 16.0949C19.1337 17.7687 17.7809 19.1296 16.1071 19.1377C14.4334 19.1459 13.0724 17.793 13.0643 16.1193C13.0562 14.4455 14.409 13.0846 16.0827 13.0765ZM19.8771 11.2443C19.8771 10.643 20.3646 10.1555 20.9659 10.1555C21.5671 10.1555 22.0546 10.643 22.0546 11.2443C22.0546 11.8455 21.5671 12.333 20.9659 12.333C20.3646 12.333 19.8771 11.8455 19.8771 11.2443ZM25.1462 12.3493C25.0771 10.8909 24.744 9.59898 23.6755 8.53461C22.6112 7.47023 21.3193 7.13711 19.8609 7.06398C18.3577 6.97867 13.8524 6.97867 12.3493 7.06398C10.8949 7.13305 9.60305 7.46617 8.53461 8.53055C7.46617 9.59492 7.13711 10.8868 7.06398 12.3452C6.97867 13.8484 6.97867 18.3537 7.06398 19.8568C7.13305 21.3152 7.46617 22.6071 8.53461 23.6715C9.60305 24.7359 10.8909 25.069 12.3493 25.1421C13.8524 25.2274 18.3577 25.2274 19.8609 25.1421C21.3193 25.073 22.6112 24.7399 23.6755 23.6715C24.7399 22.6071 25.073 21.3152 25.1462 19.8568C25.2315 18.3537 25.2315 13.8524 25.1462 12.3493ZM23.2043 21.4696C22.8874 22.2659 22.274 22.8793 21.4737 23.2002C20.2752 23.6755 17.4315 23.5659 16.1071 23.5659C14.7827 23.5659 11.9349 23.6715 10.7405 23.2002C9.9443 22.8834 9.33086 22.2699 9.00992 21.4696C8.53461 20.2712 8.6443 17.4274 8.6443 16.103C8.6443 14.7787 8.53867 11.9309 9.00992 10.7365C9.3268 9.94023 9.94023 9.3268 10.7405 9.00586C11.939 8.53055 14.7827 8.64023 16.1071 8.64023C17.4315 8.64023 20.2793 8.53461 21.4737 9.00586C22.2699 9.32273 22.8834 9.93617 23.2043 10.7365C23.6796 11.9349 23.5699 14.7787 23.5699 16.103C23.5699 17.4274 23.6796 20.2752 23.2043 21.4696Z" fill="white"/>
<defs>
<linearGradient id="paint0_linear_52_987" x1="32" y1="23.8836" x2="-4.93335e-07" y2="8.1164" gradientUnits="userSpaceOnUse">
<stop offset="0.11903" stop-color="#FF8600"/>
<stop offset="0.38801" stop-color="#7919F1"/>
<stop offset="0.625112" stop-color="#D23873"/>
<stop offset="0.851898" stop-color="#DD4A59"/>
</linearGradient>
</defs>
</svg>
