<svg width="32" height="32" viewBox="0 0 32 32" fill="none" xmlns="http://www.w3.org/2000/svg">
<rect width="32" height="32" rx="12" fill="#00AAFF"/>
<path d="M12.8209 21.6H10.2081V13.1878H12.8209V21.6ZM11.5131 12.0403C10.6778 12.0403 10 11.3484 10 10.5131C10 10.1109 10.1603 9.72844 10.4444 9.44438C10.7284 9.16031 11.1138 9 11.5131 9C11.9125 9 12.2978 9.16031 12.5819 9.44438C12.8659 9.72844 13.0263 10.1138 13.0263 10.5131C13.0263 11.3484 12.3484 12.0403 11.5131 12.0403ZM22.5972 21.6H19.99V17.505C19.99 16.5291 19.9703 15.2775 18.6316 15.2775C17.2731 15.2775 17.065 16.3378 17.065 17.4347V21.6H14.455V13.1878H16.9609V14.3353H16.9975C17.3463 13.6744 18.1984 12.9769 19.4697 12.9769C22.1134 12.9769 22.6 14.7178 22.6 16.9791V21.6H22.5972Z" fill="white"/>
</svg>
