<svg width="104" height="81" viewBox="0 0 104 81" fill="none" xmlns="http://www.w3.org/2000/svg">
<g clip-path="url(#clip0_47_1752)">
<path d="M66.7638 69.4865L71.7975 57.9359L79.2086 57.8326L72.8468 43.8955L57.8625 76.2987C56.5317 79.1751 53.7293 80.8967 50.7914 80.902L41.8848 80.9205L63.0264 36.4476C64.6839 32.9594 69.0217 31.5424 72.5014 31.4126L74.491 34.1936C76.632 37.1866 80.2871 38.5215 84.0006 39.0353L104 81L94.8304 80.9364C92.7904 80.9232 90.7875 79.9882 89.3717 78.5712C88.1604 77.3582 87.6132 75.7557 86.9491 74.2513L84.8772 69.5474L66.7638 69.4865Z" fill="#F15758"/>
<path d="M87.993 41.1118C88.3542 39.8431 90.0676 37.7666 89.8657 38.2778C90.2934 37.2024 90.7556 36.2701 91.3081 35.1127L85.2835 33.7831C83.8066 33.4573 82.1252 33.5394 80.7466 32.8243C78.9509 31.1663 77.1526 28.9123 75.4791 26.9497C74.3236 25.5962 73.1548 24.4043 72.071 22.9185L79.3307 24.2931L84.9037 25.4585L93.4783 35.1948C92.9869 35.5577 92.4822 35.2637 92.0386 35.4729C91.5259 36.045 91.5179 36.9535 91.0956 37.4806C90.5298 38.1851 90.7556 38.7228 90.652 39.4856C90.5643 40.1371 89.8126 40.7542 89.7568 41.5859C89.7302 41.9673 89.0369 42.0733 88.843 41.9037C88.6305 41.7157 87.8495 41.6336 87.9983 41.1171L87.993 41.1118Z" fill="#F15758"/>
<path d="M87.4724 35.1286C86.989 36.2172 86.6171 37.1097 85.7883 37.8752C82.0429 38.1612 78.4675 36.6065 75.8803 33.934C74.9054 32.9249 73.8376 31.7648 73.7871 30.2948C73.989 29.4446 74.8098 28.7772 75.2454 27.9296L77.8592 30.8537C78.68 31.7701 79.3069 32.7872 80.2712 33.6665C81.5568 33.8307 82.7708 34.2678 84.0378 34.5008L87.4751 35.1312L87.4724 35.1286Z" fill="#F15758"/>
<path d="M66.3256 66.8113C66.0918 67.7648 64.9815 67.937 64.251 67.5238L65.0187 65.5718C65.7359 65.4234 66.5221 66.0088 66.3256 66.8113Z" fill="#A3D289"/>
<path d="M60.3995 35.8093L52.8077 51.6824L52.6298 28.5759L52.5634 20.1877C51.0307 19.8779 47.9945 20.6115 47.3703 19.6156C47.102 19.1866 46.9957 18.5324 47.3411 18.053L59.321 1.32694C59.8868 0.537655 60.6014 -0.397307 61.6559 0.177443C62.5591 0.670086 63.0239 1.76926 63.6455 2.64331L74.4726 17.8119C74.8206 18.2993 74.9986 18.7681 74.802 19.3322C74.6533 19.7587 74.1273 20.1427 73.4765 20.1215L69.5 20.1957L69.4761 29.0262C65.5315 29.8155 62.1553 32.1277 60.3968 35.8066L60.3995 35.8093Z" fill="#A3D289"/>
<path d="M48.3424 54.5032L31.9397 54.5456L32.0061 39.7319C32.0167 37.131 33.9797 34.7922 36.1101 33.5977C38.6947 32.1489 41.4918 32.1092 44.1269 33.4997C46.3768 34.6863 48.0343 37.0356 48.3265 39.9305L48.3398 54.5032H48.3424Z" fill="#A3D289"/>
<path d="M45.9968 65.6327C45.9198 66.226 45.617 67.1768 45.1123 67.5212L19.9862 67.59C18.4934 67.5953 17.3379 67.1583 16.5808 65.8764C14.6683 62.6424 15.1862 57.4564 18.6687 56.1559L50.5471 55.9891C50.4276 56.8658 50.0371 57.4061 49.6227 57.9517C46.7937 58.0259 42.8889 57.1915 41.7016 60.3805C41.1969 61.7392 41.3722 62.9973 42.1691 64.2104C42.966 65.4234 44.3207 65.7121 45.9995 65.63L45.9968 65.6327Z" fill="#A3D289"/>
<path d="M0.844784 78.754L27.562 78.6163C30.0005 78.603 30.9727 75.6736 30.3724 73.7137C29.2248 69.9606 25.6521 71.0121 21.3223 70.9829L16.5888 70.9512L2.01887 70.9114C1.49558 70.9114 1.00682 71.1948 0.531339 70.8214C0.268364 70.6148 -0.114146 70.191 0.0957031 69.6321C0.345397 68.962 1.24323 68.8217 1.9684 68.8614C4.13861 68.9806 6.17866 69.0494 8.32496 68.9382C10.2481 68.8376 12.1315 68.925 14.0679 68.925L25.3679 68.9303C26.2471 68.9303 27.2114 68.917 28.064 69.0839C30.893 69.6401 32.7976 72.0636 32.8135 74.8208C32.8295 77.2337 31.1188 80.555 28.2181 80.5762L1.08385 80.7643C0.459618 80.7696 0.114297 80.2769 0.01867 79.8955C-0.0610194 79.575 0.159455 78.7619 0.84744 78.7566L0.844784 78.754Z" fill="#A3D289"/>
<path d="M39.0692 80.6425L31.3181 80.6663C33.3954 79.1327 34.3782 76.9503 34.1365 74.4209C34.1869 72.2622 33.0314 70.4612 31.3739 69.068H44.5173L39.0692 80.6425Z" fill="#A3D289"/>
<path d="M15.3111 67.4841C11.6746 67.4496 8.37814 68.4614 6.46293 65.1957C5.16665 62.9841 5.24103 60.1713 6.66747 58.0524C8.65174 55.1627 11.3904 56.1639 15.1677 56.1056C12.4556 59.1012 12.5167 64.5838 15.3111 67.4841Z" fill="#A3D289"/>
<path d="M68.5676 77.4429C67.7946 79.2757 66.1371 80.7325 64.0465 80.7192L56.6062 80.6795C58.0273 79.6492 59.143 78.399 59.9 76.786L63.4834 69.1633C63.8154 68.8561 64.6761 68.9567 64.9869 69.1871C64.5831 69.9288 64.3706 70.485 64.0651 71.2425L68.0655 71.3458C69.314 73.1839 69.4362 75.3902 68.5729 77.4402L68.5676 77.4429Z" fill="#A3D289"/>
<path d="M26.3535 54.4343C24.9563 54.5588 23.9176 54.6489 22.701 54.633L11.2869 54.4741C12.3175 51.7804 14.6896 49.794 17.492 49.3728C21.2002 48.8166 24.7969 50.5329 26.3508 54.4343H26.3535Z" fill="#A3D289"/>
<path d="M3.09763 75.813L3.09717 76.6871L27.8832 76.7L27.8837 75.826L3.09763 75.813Z" fill="#A3D289"/>
<path d="M3.16776 72.8473L3.16675 73.8087L23.9258 73.8304L23.9268 72.8689L3.16776 72.8473Z" fill="#A3D289"/>
<path d="M48.6983 60.3858C48.4167 61.0188 43.5583 60.6189 43.8054 60.7089L43.4388 60.5765C43.3272 60.5341 43.2369 59.917 43.4282 59.9037C45.1441 59.7872 46.7645 59.8772 48.5177 59.8667C48.7753 59.8667 48.7461 60.2745 48.6956 60.3858H48.6983Z" fill="#A3D289"/>
<path d="M43.452 62.8781C49.2693 62.3007 48.7062 64.1097 43.4493 63.5721C43.3006 63.4741 43.3059 62.9682 43.452 62.8781Z" fill="#A3D289"/>
</g>
<defs>
<clipPath id="clip0_47_1752">
<rect width="104" height="81" fill="white"/>
</clipPath>
</defs>
</svg>
