<svg width="24" height="24" viewBox="0 0 24 24" fill="none" xmlns="http://www.w3.org/2000/svg">
<path d="M9 20C8.70688 20 8.56032 20 8.42007 19.958C7.80658 19.7745 7.52125 19.069 7.83466 18.5106C7.90631 18.3829 8.12468 18.1717 8.56142 17.7494C10.065 16.2953 11 14.2571 11 12C11 9.74313 10.0651 7.70549 8.56161 6.25167C8.12405 5.82856 7.90527 5.61701 7.83359 5.48921C7.52045 4.93094 7.80566 4.2257 8.41884 4.04204C8.55922 4 8.70614 4 9 4C13.4183 4 17 7.58172 17 12C17 16.4183 13.4183 20 9 20Z" fill="white"/>
</svg>
