<svg width="24" height="24" viewBox="0 0 24 24" fill="none" xmlns="http://www.w3.org/2000/svg">
<path d="M3.08164 13.9445C2.55293 12.9941 2.28857 12.5189 2.28857 12C2.28857 11.4812 2.55293 11.0059 3.08164 10.0555L4.43089 7.63001L5.85681 5.24877C6.41556 4.31568 6.69493 3.84913 7.14426 3.58971C7.59359 3.33029 8.13732 3.32161 9.22479 3.30427L12 3.26001L14.7751 3.30427C15.8626 3.32161 16.4063 3.33029 16.8556 3.58971C17.305 3.84913 17.5843 4.31568 18.1431 5.24877L19.569 7.63001L20.9183 10.0555C21.447 11.0059 21.7113 11.4812 21.7113 12C21.7113 12.5189 21.447 12.9941 20.9183 13.9445L19.569 16.37L18.1431 18.7512C17.5843 19.6843 17.305 20.1509 16.8556 20.4103C16.4063 20.6697 15.8626 20.6784 14.7751 20.6957L12 20.74L9.22479 20.6957C8.13732 20.6784 7.59359 20.6697 7.14426 20.4103C6.69493 20.1509 6.41556 19.6843 5.85681 18.7512L4.43089 16.37L3.08164 13.9445Z" stroke="white" stroke-width="1.5"/>
<path d="M15 12C15 13.6569 13.6568 15 12 15C10.3431 15 8.99995 13.6569 8.99995 12C8.99995 10.3432 10.3431 9.00001 12 9.00001C13.6568 9.00001 15 10.3432 15 12Z" stroke="white" stroke-width="1.5"/>
</svg>
