<svg width="24" height="24" viewBox="0 0 24 24" fill="none" xmlns="http://www.w3.org/2000/svg">
<path fill-rule="evenodd" clip-rule="evenodd" d="M17.8322 3.08717C18.3094 3.36265 18.5934 3.87003 19.1603 4.88458L20.6797 7.60439L22.2748 10.281C22.8701 11.2794 23.1682 11.7783 23.1682 12.3293C23.1682 12.8803 22.8704 13.3797 22.2752 14.378L20.6796 17.0539L19.16 19.7737C18.5931 20.7883 18.3094 21.296 17.8323 21.5714C17.3552 21.8468 16.7737 21.8382 15.6117 21.8219L12.4966 21.7779L9.38146 21.822C8.21927 21.8383 7.63801 21.846 7.16084 21.5706C6.68385 21.295 6.40041 20.788 5.83364 19.7736L4.31335 17.0533L2.71776 14.3775C2.1228 13.3797 1.82537 12.8805 1.8252 12.3297C1.8252 11.7788 2.12301 11.2793 2.71819 10.2811L4.31387 7.60516L5.83343 4.88532C6.40038 3.87066 6.68397 3.36311 7.16113 3.08762C7.63821 2.81223 8.21908 2.82039 9.38085 2.83671L12.4965 2.87978L15.6124 2.83624C16.7741 2.81991 17.3552 2.81186 17.8322 3.08717ZM14.4963 8.86518C12.5832 7.76081 10.1367 8.41619 9.03219 10.3293C7.92781 12.2423 8.58337 14.6888 10.4963 15.7934C12.4094 16.8979 14.8558 16.2423 15.9604 14.3293C17.065 12.4161 16.4095 9.96975 14.4963 8.86518Z" fill="white"/>
</svg>
