<svg width="18" height="18" viewBox="0 0 18 18" fill="none" xmlns="http://www.w3.org/2000/svg">
<path d="M7.60775 4.97071C8.19769 3.49996 8.49267 2.76459 8.99997 2.76459C9.50719 2.76459 9.80217 3.49996 10.3921 4.97071L10.4196 5.0392C10.7529 5.8701 10.9195 6.28555 11.2592 6.53807C11.5988 6.79058 12.0447 6.83051 12.9363 6.91037L13.0975 6.92481C14.5569 7.0555 15.2866 7.12085 15.4427 7.58508C15.5988 8.04933 15.057 8.5423 13.9731 9.52833L13.6115 9.85743C13.0629 10.3566 12.7885 10.6062 12.6606 10.9332C12.6368 10.9943 12.617 11.0568 12.6013 11.1204C12.5172 11.4614 12.5976 11.8234 12.7583 12.5475L12.8082 12.7729C13.1035 14.1036 13.2511 14.769 12.9934 15.0561C12.897 15.1633 12.7719 15.2405 12.6328 15.2784C12.2607 15.38 11.7323 14.9495 10.6756 14.0884C9.98172 13.523 9.63477 13.2403 9.23645 13.1767C9.07977 13.1517 8.92009 13.1517 8.76342 13.1767C8.3651 13.2403 8.01815 13.523 7.3243 14.0884C6.26758 14.9495 5.73923 15.38 5.36707 15.2784C5.22801 15.2405 5.10283 15.1633 5.00651 15.0561C4.74875 14.769 4.89638 14.1036 5.19164 12.7729L5.24164 12.5475C5.4023 11.8234 5.48263 11.4614 5.39858 11.1204C5.38291 11.0568 5.36308 10.9943 5.33923 10.9332C5.21138 10.6062 4.93706 10.3566 4.38843 9.85743L4.02672 9.52833C2.94293 8.5423 2.40104 8.04933 2.55718 7.58508C2.71331 7.12085 3.443 7.0555 4.90235 6.92481L5.06356 6.91037C5.95524 6.83051 6.40109 6.79058 6.74072 6.53807C7.08036 6.28555 7.24701 5.8701 7.58029 5.0392L7.60775 4.97071Z" fill="#FFAE00"/>
<path d="M13 4.5L14.5 3" stroke="#FFEC1D" stroke-opacity="0.39" stroke-linecap="round"/>
<path d="M15 12L16.5 13.5" stroke="#FFEC1D" stroke-opacity="0.39" stroke-linecap="round"/>
<path d="M9 14.625V16.5" stroke="#FFEC1D" stroke-opacity="0.39" stroke-linecap="round"/>
<path d="M5.5 4.5L4 3" stroke="#FFEC1D" stroke-opacity="0.39" stroke-linecap="round"/>
<path d="M3 12L1.5 13.5" stroke="#FFEC1D" stroke-opacity="0.39" stroke-linecap="round"/>
</svg>
