<svg width="100" height="100" viewBox="0 0 100 100" fill="none" xmlns="http://www.w3.org/2000/svg">
<rect width="100" height="100" rx="40" fill="#A3D289" fill-opacity="0.15"/>
<path d="M49.2122 27.9166C49.7152 27.701 50.2843 27.7011 50.7874 27.9166L68.3684 35.4508C69.1877 35.8019 69.6762 36.6533 69.5657 37.5377L67.2854 55.775C67.0652 57.536 66.1848 59.1476 64.8215 60.2838L51.2805 71.568C50.5389 72.186 49.4617 72.1859 48.72 71.568L35.179 60.2838C33.8155 59.1476 32.9344 57.5361 32.7141 55.775L30.4338 37.5377C30.3233 36.6533 30.8119 35.8019 31.6311 35.4508L49.2122 27.9166Z" stroke="#A3D289" stroke-width="2" stroke-linecap="round"/>
<path d="M42.0001 50L49.5688 57.5687C49.7919 57.7918 50.1634 57.7551 50.3384 57.4925L60.6667 42" stroke="#A3D289" stroke-width="2" stroke-linecap="round"/>
</svg>
