<svg width="168" height="132" viewBox="0 0 168 132" fill="none" xmlns="http://www.w3.org/2000/svg">
<g clip-path="url(#clip0_34_149)">
<path d="M79.9715 121.195L79.7288 126.475L79.9719 127.936L79.121 129.64L72.4363 130.37L72.0715 127.206L75.5962 125.38L75.6987 122.398L79.9715 121.195Z" fill="#ED9DA0"/>
<path d="M72.9227 129.152L73.2874 129.639L80.2878 127.618C80.2878 127.618 79.9728 130.734 79.9728 131.344C79.9728 131.953 68.4268 131.952 66.6892 131.709C64.9517 131.466 65.5097 129.883 65.5097 129.883L72.7148 126.467L72.9235 129.152L72.9227 129.152Z" fill="#090814"/>
<path d="M53.5604 121.195L53.3176 126.475L53.5608 127.936L52.7099 129.64L46.0252 130.37L45.6604 127.206L49.185 125.38L49.2875 122.398L53.5604 121.195Z" fill="#ED9DA0"/>
<path d="M46.5115 129.152L46.8763 129.639L53.8766 127.618C53.8766 127.618 53.5616 130.734 53.5616 131.344C53.5616 131.953 42.0156 131.952 40.2781 131.709C38.5406 131.466 39.0985 129.883 39.0985 129.883L46.3036 126.467L46.5124 129.152L46.5115 129.152Z" fill="#090814"/>
<path d="M103.292 118.686L99.2621 122.401L102.464 117.019C99.9414 112.437 95.8153 108.476 95.8153 108.476C95.8153 108.476 87.2549 116.691 87.2549 123.149C87.2549 129.607 91.0874 131.861 95.8153 131.861C100.543 131.861 104.376 129.607 104.376 123.149C104.376 121.712 103.951 120.187 103.292 118.686Z" fill="#F2F2F2"/>
<path d="M98.2259 122.602V122.921C98.207 126.62 97.5842 129.507 96.3617 131.54C96.3445 131.57 96.3256 131.598 96.3082 131.628L96.1713 131.544L96.0407 131.462C97.3966 129.267 97.8765 126.164 97.8939 122.937C97.8956 122.833 97.897 122.727 97.8956 122.622C97.8907 121.255 97.8076 119.873 97.6738 118.531C97.6644 118.427 97.6528 118.321 97.6423 118.216C97.4567 116.444 97.1891 114.752 96.9155 113.282C96.8966 113.178 96.8762 113.074 96.8557 112.971C96.3821 110.485 95.8991 108.684 95.7891 108.285C95.7765 108.236 95.7681 108.209 95.7681 108.203L95.9176 108.161L95.9193 108.16L96.0703 108.118C96.0719 108.124 96.0986 108.214 96.1427 108.381C96.3107 109.005 96.7483 110.699 97.1778 112.933C97.1967 113.034 97.2171 113.138 97.236 113.242C97.4594 114.435 97.678 115.768 97.8511 117.167C97.8952 117.519 97.9345 117.865 97.9691 118.207C97.9817 118.312 97.9926 118.417 98.002 118.523C98.146 119.974 98.2206 121.334 98.2259 122.602Z" fill="white"/>
<path d="M97.1766 112.934C97.0716 112.948 96.9643 112.962 96.8557 112.973C96.561 113.004 96.2648 113.019 95.9685 113.019C94.7053 113.021 93.4577 112.739 92.3176 112.194C92.2515 112.278 92.1855 112.361 92.1179 112.447C93.3167 113.033 94.6334 113.337 95.9674 113.335C96.2838 113.335 96.5999 113.318 96.9145 113.285C97.0214 113.274 97.1285 113.26 97.2339 113.244C98.104 113.119 98.9501 112.862 99.7432 112.483C99.6756 112.396 99.6095 112.311 99.545 112.227C98.7945 112.578 97.9965 112.816 97.1766 112.934Z" fill="white"/>
<path d="M97.9677 118.208C97.8592 118.214 97.7506 118.217 97.642 118.217C97.609 118.219 97.5744 118.219 97.5414 118.219C96.1729 118.219 94.8247 117.887 93.6118 117.253C92.3988 116.618 91.357 115.699 90.5753 114.574C90.5123 114.667 90.4493 114.76 90.3882 114.855C91.203 115.993 92.2769 116.92 93.5208 117.56C94.7648 118.2 96.143 118.534 97.5414 118.534C97.5855 118.534 97.6294 118.534 97.6735 118.532C97.7835 118.531 97.8921 118.528 98.0007 118.523C99.6804 118.437 101.3 117.868 102.665 116.884C102.615 116.791 102.565 116.698 102.513 116.605C101.186 117.571 99.6061 118.128 97.9677 118.208Z" fill="white"/>
<path d="M98.226 122.602C98.1159 122.612 98.0057 122.618 97.8956 122.623C97.7776 122.628 97.6596 122.631 97.5416 122.631C95.7027 122.629 93.914 122.03 92.4433 120.925C90.9726 119.819 89.8989 118.266 89.3831 116.498C89.3123 116.626 89.2416 116.752 89.1731 116.88C89.7545 118.644 90.876 120.179 92.3783 121.268C93.8806 122.357 95.6872 122.944 97.5416 122.945C97.6596 122.945 97.7776 122.944 97.894 122.938C98.0057 122.935 98.1157 122.928 98.226 122.92C100.45 122.746 102.525 121.732 104.031 120.082C103.998 119.966 103.96 119.851 103.922 119.734C102.468 121.396 100.425 122.424 98.226 122.602V122.602Z" fill="white"/>
<path d="M22.9788 46.0332C35.6697 46.0332 45.9577 35.7283 45.9577 23.0166C45.9577 10.3049 35.6697 0 22.9788 0C10.288 0 0 10.3049 0 23.0166C0 35.7283 10.288 46.0332 22.9788 46.0332Z" fill="#E4E4E4"/>
<path d="M22.9787 42.1965C33.5543 42.1965 42.1275 33.6092 42.1275 23.0162C42.1275 12.4232 33.5543 3.83588 22.9787 3.83588C12.4031 3.83588 3.82983 12.4232 3.82983 23.0162C3.82983 33.6092 12.4031 42.1965 22.9787 42.1965Z" fill="#F15758"/>
<path d="M84.0003 46.0332C96.6912 46.0332 106.979 35.7283 106.979 23.0166C106.979 10.3049 96.6912 0 84.0003 0C71.3095 0 61.0215 10.3049 61.0215 23.0166C61.0215 35.7283 71.3095 46.0332 84.0003 46.0332Z" fill="#E4E4E4"/>
<path d="M83.9997 42.1965C94.5753 42.1965 103.149 33.6092 103.149 23.0162C103.149 12.4232 94.5753 3.83588 83.9997 3.83588C73.4241 3.83588 64.8508 12.4232 64.8508 23.0162C64.8508 33.6092 73.4241 42.1965 83.9997 42.1965Z" fill="white"/>
<path d="M145.021 46.0332C157.712 46.0332 168 35.7283 168 23.0166C168 10.3049 157.712 0 145.021 0C132.33 0 122.042 10.3049 122.042 23.0166C122.042 35.7283 132.33 46.0332 145.021 46.0332Z" fill="#E4E4E4"/>
<path d="M145.021 42.1965C155.597 42.1965 164.17 33.6092 164.17 23.0162C164.17 12.4232 155.597 3.83588 145.021 3.83588C134.446 3.83588 125.872 12.4232 125.872 23.0162C125.872 33.6092 134.446 42.1965 145.021 42.1965Z" fill="white"/>
<path d="M21.3515 29.9523C21.3172 29.9523 21.2828 29.9515 21.2485 29.9498C20.9457 29.9352 20.6496 29.8551 20.3805 29.7151C20.1114 29.5751 19.8758 29.3785 19.6897 29.1387L16.7525 25.3558C16.4104 24.9143 16.2571 24.355 16.3263 23.8005C16.3955 23.246 16.6814 22.7416 17.1214 22.398L17.2264 22.3155C17.6672 21.9729 18.2257 21.8195 18.7793 21.8887C19.3329 21.958 19.8365 22.2444 20.1796 22.6851C20.3452 22.8983 20.5548 23.0732 20.7941 23.1977C21.0334 23.3222 21.2967 23.3935 21.566 23.4067C21.8354 23.4198 22.1044 23.3745 22.3546 23.2739C22.6049 23.1732 22.8304 23.0196 23.0159 22.8235L28.9799 16.5171C29.17 16.3162 29.3977 16.1547 29.6501 16.0419C29.9024 15.9291 30.1745 15.8671 30.4508 15.8597C30.7271 15.8522 31.0021 15.8993 31.2602 15.9983C31.5183 16.0972 31.7544 16.2462 31.955 16.4366L32.0524 16.5289C32.253 16.7193 32.4142 16.9474 32.5268 17.2001C32.6394 17.4529 32.7012 17.7254 32.7087 18.0021C32.7161 18.2788 32.6691 18.5543 32.5703 18.8128C32.4714 19.0713 32.3227 19.3077 32.1326 19.5087L22.879 29.2941C22.6825 29.5021 22.4456 29.6678 22.183 29.781C21.9203 29.8941 21.6374 29.9524 21.3515 29.9523Z" fill="white"/>
<path d="M73.9148 18.8221L60.668 16.648L58.7896 5.64696C58.8051 4.83115 59.143 4.05481 59.7291 3.48813C60.3152 2.92144 61.1017 2.61065 61.9162 2.62388H66.9436C70.7866 2.62388 73.9142 5.64717 73.9142 9.36334L73.9148 18.8221Z" fill="#090814"/>
<path d="M61.0256 16.0948L66.8661 15.6247L67.3109 22.0966H60.5825L61.0256 16.0948Z" fill="#ED9DA0"/>
<path d="M56.5164 39.4873L54.6428 51.4513L72.442 51.6859L70.1001 40.1911L56.5164 39.4873Z" fill="#ED9DA0"/>
<path d="M55.1592 50.9932C55.1592 50.9932 51.6854 49.7639 50.0926 67.6958C48.4997 85.6277 48.7876 122.721 48.7876 122.721H53.5889L65.0647 76.2945L75.1468 122.721H80.4577L77.0089 70.6697C77.0089 70.6697 77.9749 60.4656 73.0275 54.4443L72.4584 50.9932H55.1592Z" fill="#090814"/>
<path d="M79.4762 60.3165C78.9806 60.1812 78.5206 59.9388 78.1287 59.6062C77.7368 59.2736 77.4224 58.8589 77.2078 58.3915C76.9931 57.924 76.8835 57.4151 76.8864 56.9006C76.8894 56.3861 77.005 55.8785 77.225 55.4136L69.6528 30.6862L75.2224 29.5804L82.1478 53.8185C82.9032 54.2404 83.4778 54.9252 83.7628 55.7432C84.0478 56.5611 84.0232 57.4553 83.6939 58.2563C83.3646 59.0574 82.7533 59.7096 81.9759 60.0893C81.1986 60.4691 80.3092 60.55 79.4762 60.3167V60.3165Z" fill="#ED9DA0"/>
<path d="M69.4551 46.0946L57.1856 45.8574C56.8349 45.8499 56.4964 45.7275 56.2217 45.5089C55.9471 45.2903 55.7517 44.9875 55.6652 44.647C55.0075 42.0387 53.5604 35.2404 54.3279 28.4696C54.4844 27.1221 54.9161 25.8214 55.5961 24.6483C56.2762 23.4752 57.19 22.4548 58.2808 21.6508C59.3716 20.8468 60.6159 20.2763 61.9364 19.9748C63.2568 19.6733 64.6251 19.6473 65.956 19.8984C67.2869 20.1495 68.5519 20.6724 69.6723 21.4344C70.7928 22.1964 71.7446 23.1813 72.4686 24.3277C73.1925 25.4741 73.6732 26.7576 73.8805 28.0981C74.0878 29.4387 74.0175 30.8076 73.6738 32.1197C72.1294 37.9944 71.2569 42.1973 71.0809 44.6119C71.0548 44.961 70.9154 45.2919 70.6839 45.5542C70.4524 45.8165 70.1416 45.9956 69.7989 46.0643C69.6969 46.0846 69.5932 46.0948 69.4893 46.0948L69.4551 46.0946Z" fill="#E4E4E4"/>
<path d="M32.1859 24.3746C32.2595 24.5401 32.3201 24.7113 32.3669 24.8864L47.7248 30.1136L50.6923 27.5169L55.1903 31.4908L50.3828 36.599C49.9944 37.0117 49.4829 37.2871 48.925 37.3838C48.3671 37.4805 47.7929 37.3933 47.2886 37.1354L30.8547 28.7273C30.2604 29.0924 29.5692 29.2677 28.873 29.2297C28.1768 29.1918 27.5087 28.9424 26.9574 28.5149C26.4062 28.0873 25.998 27.5018 25.7871 26.8361C25.5762 26.1705 25.5726 25.4563 25.7768 24.7886C25.981 24.1209 26.3833 23.5313 26.9303 23.0982C27.4772 22.6651 28.1428 22.409 28.8385 22.3641C29.5343 22.3191 30.2272 22.4874 30.8252 22.8466C31.4231 23.2057 31.8977 23.7387 32.1859 24.3746Z" fill="#ED9DA0"/>
<path d="M47.7568 29.279C47.758 29.0672 47.8048 28.8581 47.894 28.666C47.9832 28.4739 48.1128 28.3034 48.2738 28.1661L53.8972 23.3683C54.2491 22.9623 54.6774 22.6298 55.1577 22.3896C55.6379 22.1494 56.1607 22.0063 56.6961 21.9685C57.2316 21.9306 57.7692 21.9988 58.2784 22.1691C58.7875 22.3394 59.2582 22.6085 59.6635 22.961C60.0688 23.3135 60.4008 23.7425 60.6406 24.2235C60.8804 24.7046 61.0233 25.2282 61.0611 25.7645C61.0988 26.3008 61.0307 26.8394 60.8607 27.3493C60.6907 27.8593 60.4221 28.3308 60.0701 28.7368L56.0657 34.9827C55.9513 35.161 55.8 35.3125 55.622 35.4269C55.444 35.5413 55.2434 35.6159 55.034 35.6457C54.8246 35.6754 54.6112 35.6596 54.4085 35.5994C54.2057 35.5391 54.0183 35.4357 53.859 35.2964L48.2604 30.3985C48.1009 30.2592 47.9733 30.0871 47.8863 29.8939C47.7993 29.7007 47.755 29.491 47.7564 29.279H47.7568Z" fill="#E4E4E4"/>
<path d="M69.3135 36.9501C69.1263 36.8515 68.9625 36.7136 68.8334 36.5458C68.7042 36.378 68.6128 36.1843 68.5652 35.9779L66.9027 28.7685C66.7049 28.2687 66.6074 27.7347 66.6157 27.1971C66.624 26.6595 66.7379 26.1288 66.951 25.6353C67.164 25.1418 67.472 24.6952 67.8574 24.3209C68.2428 23.9467 68.698 23.6521 69.197 23.454C69.696 23.256 70.2291 23.1583 70.7658 23.1666C71.3026 23.1749 71.8324 23.289 72.3251 23.5024C72.8178 23.7158 73.2637 24.0244 73.6373 24.4104C74.011 24.7964 74.305 25.2523 74.5028 25.7522L78.1942 32.1887C78.2995 32.3724 78.364 32.5767 78.3835 32.7877C78.4029 32.9987 78.3766 33.2113 78.3066 33.4112C78.2365 33.6111 78.1243 33.7935 77.9775 33.9461C77.8307 34.0986 77.6529 34.2177 77.456 34.2951L70.5373 37.0176C70.3405 37.0952 70.1292 37.1293 69.918 37.1176C69.7068 37.1059 69.5006 37.0487 69.3135 36.9499V36.9501Z" fill="#E4E4E4"/>
<path d="M69.7645 13.8136C71.6614 10.3378 70.3861 5.97972 66.9159 4.07966C63.4457 2.17959 59.0949 3.45703 57.1979 6.9329C55.301 10.4088 56.5763 14.7668 60.0465 16.6669C63.5166 18.5669 67.8675 17.2895 69.7645 13.8136Z" fill="#ED9DA0"/>
<path d="M67.4097 2.15755H59.2197C58.6192 2.14979 58.038 2.3697 57.5926 2.77319C57.1472 3.17668 56.8705 3.73391 56.8181 4.33314C56.797 4.65149 56.8413 4.9708 56.9484 5.27128C57.0555 5.57176 57.223 5.84702 57.4406 6.08002C57.6582 6.31302 57.9212 6.4988 58.2134 6.62584C58.5056 6.75288 58.8207 6.81848 59.1392 6.81858C59.7564 6.81858 60.3482 7.06413 60.7845 7.50121C61.2209 7.93829 61.466 8.53109 61.466 9.14921V18.705H74.2639V9.023C74.2639 7.20217 73.5417 5.45591 72.2563 4.16839C70.9709 2.88087 69.2275 2.15755 67.4097 2.15755Z" fill="#090814"/>
<path d="M107.786 132H19.1326C19.0709 132 19.0117 131.976 18.9681 131.932C18.9244 131.888 18.8999 131.829 18.8999 131.767C18.8999 131.705 18.9244 131.646 18.9681 131.602C19.0117 131.558 19.0709 131.534 19.1326 131.534H107.786C107.848 131.534 107.907 131.558 107.951 131.602C107.995 131.646 108.019 131.705 108.019 131.767C108.019 131.829 107.995 131.888 107.951 131.932C107.907 131.976 107.848 132 107.786 132Z" fill="#CACACA"/>
<path d="M76.1177 4.65635C76.6304 3.45407 75.7487 1.92432 74.1483 1.23955C72.548 0.554785 70.8349 0.974315 70.3222 2.17659C69.8095 3.37888 70.6912 4.90863 72.2915 5.59339C73.8919 6.27816 75.6049 5.85863 76.1177 4.65635Z" fill="#090814"/>
</g>
<defs>
<clipPath id="clip0_34_149">
<rect width="168" height="132" fill="white"/>
</clipPath>
</defs>
</svg>
