<svg width="255" height="218" viewBox="0 0 255 218" fill="none" xmlns="http://www.w3.org/2000/svg">
<g clip-path="url(#clip0_41_1700)">
<path d="M19.1483 200.057C20.6176 200.571 22.1953 200.7 23.7292 200.431C25.2631 200.162 26.7015 199.503 27.906 198.52C30.9733 195.955 31.9353 191.73 32.7176 187.817L35.0321 176.244L30.1864 179.568C26.7015 181.958 23.1383 184.426 20.7256 187.888C18.3128 191.35 17.2602 196.077 19.1982 199.824" fill="#E6E6E6"/>
<path d="M19.8965 214.874C19.2866 210.447 18.6591 205.963 19.0879 201.489C19.4679 197.515 20.6849 193.635 23.1623 190.452C24.4773 188.766 26.0774 187.321 27.8907 186.183C28.3634 185.886 28.7986 186.632 28.3279 186.928C25.1903 188.903 22.7635 191.821 21.3973 195.259C19.8884 199.082 19.6461 203.25 19.906 207.311C20.0631 209.767 20.3969 212.207 20.7322 214.644C20.7587 214.754 20.7422 214.871 20.686 214.969C20.6298 215.068 20.5382 215.141 20.4296 215.175C20.3188 215.205 20.2008 215.19 20.101 215.133C20.0013 215.077 19.9279 214.984 19.8968 214.874L19.8965 214.874Z" fill="#F2F2F2"/>
<path d="M24.2864 207.771C24.9165 208.725 25.7827 209.502 26.8016 210.026C27.8205 210.55 28.9576 210.804 30.1035 210.763C33.0491 210.624 35.5037 208.576 37.7131 206.632L44.2495 200.882L39.9237 200.676C36.8127 200.528 33.6214 200.389 30.6583 201.345C27.6952 202.302 24.9625 204.602 24.4207 207.657" fill="#E6E6E6"/>
<path d="M18.1725 217.419C21.1088 212.243 24.5143 206.49 30.6 204.652C32.2919 204.142 34.066 203.96 35.8268 204.114C36.3818 204.162 36.2432 205.014 35.6893 204.966C32.7378 204.722 29.792 205.499 27.3478 207.165C24.9957 208.76 23.1643 210.978 21.6144 213.329C20.6649 214.769 19.8145 216.271 18.964 217.77C18.6923 218.25 17.8976 217.904 18.1725 217.419Z" fill="#F2F2F2"/>
<path d="M253.118 153.522H91.2376C90.7388 153.521 90.2606 153.323 89.9079 152.972C89.5551 152.621 89.3567 152.144 89.356 151.647V1.8745C89.3567 1.37755 89.5552 0.901141 89.9079 0.549745C90.2606 0.19835 90.7388 0.000649636 91.2376 0H253.118C253.617 0.000649636 254.095 0.19835 254.448 0.549745C254.801 0.901141 254.999 1.37755 255 1.8745V151.647C254.999 152.144 254.801 152.62 254.448 152.972C254.096 153.323 253.617 153.521 253.118 153.522Z" fill="white"/>
<path d="M253.118 153.522H91.2376C90.7388 153.521 90.2606 153.323 89.9079 152.972C89.5551 152.621 89.3567 152.144 89.356 151.647V1.8745C89.3567 1.37755 89.5552 0.901141 89.9079 0.549745C90.2606 0.19835 90.7388 0.000649636 91.2376 0H253.118C253.617 0.000649636 254.095 0.19835 254.448 0.549745C254.801 0.901141 254.999 1.37755 255 1.8745V151.647C254.999 152.144 254.801 152.62 254.448 152.972C254.096 153.323 253.617 153.521 253.118 153.522ZM91.2376 0.748323C90.9386 0.748969 90.6521 0.867571 90.4407 1.07817C90.2293 1.28876 90.1103 1.57421 90.1097 1.87204V151.647C90.1103 151.945 90.2293 152.23 90.4407 152.441C90.6521 152.651 90.9386 152.77 91.2376 152.771H253.118C253.417 152.77 253.704 152.651 253.915 152.441C254.127 152.23 254.246 151.945 254.246 151.647V1.8745C254.246 1.57667 254.127 1.29122 253.915 1.08063C253.704 0.870031 253.417 0.751429 253.118 0.750782L91.2376 0.748323Z" fill="#CACACA"/>
<path d="M167.729 38.9189C167.391 38.9195 167.066 39.0539 166.827 39.2924C166.588 39.531 166.454 39.8544 166.454 40.1915C166.454 40.5287 166.588 40.852 166.827 41.0906C167.066 41.3292 167.391 41.4636 167.729 41.4641H237.821C238.16 41.4636 238.484 41.3292 238.723 41.0906C238.962 40.852 239.097 40.5287 239.097 40.1915C239.097 39.8544 238.962 39.531 238.723 39.2924C238.484 39.0539 238.16 38.9195 237.821 38.9189H167.729Z" fill="#E4E4E4"/>
<path d="M167.729 46.5552C167.391 46.5561 167.067 46.6905 166.828 46.9291C166.589 47.1676 166.455 47.4909 166.455 47.8278C166.455 48.1648 166.589 48.4881 166.828 48.7266C167.067 48.9652 167.391 49.0996 167.729 49.1004H203.513C203.851 49.0996 204.175 48.9652 204.414 48.7266C204.653 48.4881 204.787 48.1648 204.787 47.8278C204.787 47.4909 204.653 47.1676 204.414 46.9291C204.175 46.6905 203.851 46.5561 203.513 46.5552H167.729Z" fill="#E4E4E4"/>
<path d="M106.466 87.6208C106.128 87.6217 105.804 87.7561 105.565 87.9947C105.326 88.2332 105.192 88.5565 105.192 88.8935C105.192 89.2304 105.326 89.5537 105.565 89.7922C105.804 90.0308 106.128 90.1652 106.466 90.1661H237.89C238.228 90.1652 238.552 90.0308 238.791 89.7922C239.03 89.5537 239.164 89.2304 239.164 88.8935C239.164 88.5565 239.03 88.2332 238.791 87.9947C238.552 87.7561 238.228 87.6217 237.89 87.6208H106.466Z" fill="#E4E4E4"/>
<path d="M106.466 95.2572C106.128 95.258 105.804 95.3925 105.565 95.631C105.326 95.8696 105.192 96.1928 105.192 96.5298C105.192 96.8668 105.326 97.19 105.565 97.4286C105.804 97.6672 106.128 97.8016 106.466 97.8024H203.581C203.919 97.8016 204.243 97.6672 204.482 97.4286C204.721 97.19 204.855 96.8668 204.855 96.5298C204.855 96.1928 204.721 95.8696 204.482 95.631C204.243 95.3925 203.919 95.258 203.581 95.2572H106.466Z" fill="#E4E4E4"/>
<path d="M106.466 102.721C106.128 102.722 105.804 102.856 105.565 103.095C105.326 103.333 105.192 103.656 105.192 103.993C105.192 104.33 105.326 104.654 105.565 104.892C105.804 105.131 106.128 105.265 106.466 105.266H237.89C238.228 105.265 238.552 105.131 238.791 104.892C239.03 104.654 239.164 104.33 239.164 103.993C239.164 103.656 239.03 103.333 238.791 103.095C238.552 102.856 238.228 102.722 237.89 102.721H106.466Z" fill="#E4E4E4"/>
<path d="M106.466 110.357C106.128 110.358 105.804 110.492 105.565 110.731C105.326 110.969 105.192 111.293 105.192 111.63C105.192 111.967 105.326 112.29 105.565 112.528C105.804 112.767 106.128 112.901 106.466 112.902H203.581C203.919 112.901 204.243 112.767 204.482 112.528C204.721 112.29 204.855 111.967 204.855 111.63C204.855 111.293 204.721 110.969 204.482 110.731C204.243 110.492 203.919 110.358 203.581 110.357H106.466Z" fill="#E4E4E4"/>
<path d="M106.466 118.019C106.128 118.02 105.804 118.155 105.565 118.393C105.326 118.632 105.192 118.955 105.192 119.292C105.192 119.629 105.326 119.952 105.565 120.191C105.804 120.429 106.128 120.564 106.466 120.565H237.89C238.228 120.564 238.552 120.429 238.791 120.191C239.03 119.952 239.164 119.629 239.164 119.292C239.164 118.955 239.03 118.632 238.791 118.393C238.552 118.155 238.228 118.02 237.89 118.019H106.466Z" fill="#E4E4E4"/>
<path d="M106.466 125.656C106.128 125.657 105.804 125.791 105.565 126.03C105.326 126.268 105.192 126.591 105.192 126.928C105.192 127.265 105.326 127.589 105.565 127.827C105.804 128.066 106.128 128.2 106.466 128.201H203.581C203.919 128.2 204.243 128.066 204.482 127.827C204.721 127.589 204.855 127.265 204.855 126.928C204.855 126.591 204.721 126.268 204.482 126.03C204.243 125.791 203.919 125.657 203.581 125.656H106.466Z" fill="#E4E4E4"/>
<path d="M127.283 62.2934C123.653 62.2935 120.105 61.2212 117.086 59.2121C114.068 57.2031 111.716 54.3476 110.327 51.0066C108.938 47.6657 108.575 43.9894 109.283 40.4427C109.991 36.896 111.739 33.6381 114.305 31.081C116.872 28.524 120.142 26.7826 123.702 26.0771C127.262 25.3716 130.952 25.7337 134.305 27.1175C137.659 28.5014 140.525 30.8449 142.542 33.8516C144.558 36.8584 145.635 40.3934 145.635 44.0096C145.629 48.8571 143.694 53.5044 140.253 56.9321C136.813 60.3598 132.148 62.2879 127.283 62.2934Z" fill="#F15758"/>
<path d="M71.5733 131.426C71.5416 130.758 71.3634 130.106 71.0512 129.515C70.7391 128.924 70.3006 128.408 69.7666 128.003C69.2327 127.599 68.6162 127.316 67.9608 127.175C67.3053 127.034 66.6267 127.038 65.9729 127.186L59.9067 118.669L53.8124 121.079L62.5486 132.987C62.8715 134.065 63.5801 134.987 64.5401 135.58C65.5 136.172 66.6446 136.392 67.7571 136.2C68.8695 136.008 69.8724 135.415 70.5757 134.535C71.2791 133.655 71.6341 132.549 71.5733 131.426Z" fill="#A0616A"/>
<path d="M59.7506 130.795L41.3953 107.071L48.2729 85.537C48.7769 80.123 52.1774 78.6112 52.3222 78.5494L52.5429 78.4551L58.5276 94.3553L54.1334 106.029L64.9189 124.101L59.7506 130.795Z" fill="#3F3D56"/>
<path d="M123.495 57.6635C122.83 57.7466 122.191 57.9741 121.623 58.3298C121.056 58.6856 120.573 59.1611 120.21 59.7227C119.847 60.2843 119.612 60.9184 119.521 61.5804C119.43 62.2424 119.487 62.9161 119.686 63.5541L111.631 70.2381L114.514 76.105L125.756 66.5069C126.809 66.1028 127.678 65.3276 128.196 64.3283C128.714 63.329 128.847 62.175 128.568 61.085C128.29 59.9949 127.619 59.0445 126.684 58.4139C125.749 57.7833 124.615 57.5163 123.495 57.6635Z" fill="#A0616A"/>
<path d="M123.778 69.4556L101.456 89.5218L79.3739 84.3554C73.9169 84.2734 72.1411 81.0125 72.0681 80.8736L71.9566 80.6616L87.4059 73.4877L99.4285 76.9498L116.68 64.8395L123.778 69.4556Z" fill="#3F3D56"/>
<path d="M85.113 212.106L91.1105 212.106L93.9634 189.059L85.1119 189.06L85.113 212.106Z" fill="#A0616A"/>
<path d="M102.677 217.654L83.828 217.655L83.8277 210.399L97.3886 210.399C98.7911 210.398 100.136 210.953 101.128 211.941C102.12 212.929 102.677 214.269 102.677 215.667L102.677 217.654Z" fill="#2F2E41"/>
<path d="M61.1422 212.106L67.1397 212.106L69.9929 189.059L61.1415 189.06L61.1422 212.106Z" fill="#A0616A"/>
<path d="M78.7065 217.654L59.8574 217.655L59.8571 210.399L73.418 210.399C74.1125 210.398 74.8001 210.535 75.4417 210.799C76.0833 211.064 76.6663 211.452 77.1574 211.941C77.6484 212.431 78.038 213.011 78.3038 213.651C78.5696 214.29 78.7064 214.975 78.7064 215.667L78.7065 217.654Z" fill="#2F2E41"/>
<path d="M59.0092 127.983L59.4984 162.099L59.9879 206.937L70.7499 205.963L76.1312 144.067L82.98 205.963H94.0907L95.2098 143.58L91.2963 129.933L59.0092 127.983Z" fill="#2F2E41"/>
<path d="M80.0738 132.565C68.3638 132.566 57.5848 127.286 57.4393 127.213L57.3184 127.153L56.3357 103.658C56.0508 102.827 50.4395 86.4444 49.4892 81.2371C48.5263 75.9614 62.4813 71.3312 64.1759 70.7897L64.5605 66.5456L80.1988 64.8668L82.1809 70.2973L87.7912 72.3932C88.4273 72.631 88.9537 73.093 89.2707 73.6916C89.5877 74.2902 89.6732 74.9838 89.5112 75.6411L86.393 88.2742L94.0086 130.071L92.369 130.141C88.4391 131.909 84.1975 132.565 80.0738 132.565Z" fill="#3F3D56"/>
<path d="M78.3926 60.8041C83.849 57.8325 85.8543 51.0167 82.8715 45.5806C79.8888 40.1445 73.0474 38.1467 67.5909 41.1183C62.1345 44.09 60.1291 50.9058 63.1119 56.3419C66.0947 61.778 72.9361 63.7758 78.3926 60.8041Z" fill="#A0616A"/>
<path d="M63.8722 61.8208C66.018 64.098 70.0031 62.8755 70.2827 59.7645C70.3047 59.523 70.3031 59.2799 70.278 59.0387C70.1336 57.6606 69.3345 56.4095 69.5259 54.9545C69.5692 54.5924 69.7046 54.2473 69.9193 53.9519C71.6293 51.6707 75.6433 54.9722 77.2571 52.9071C78.2466 51.6408 77.0834 49.6471 77.8428 48.2318C78.845 46.3639 81.8136 47.2853 83.6752 46.2624C85.7464 45.1242 85.6225 41.9581 84.2591 40.0324C82.5963 37.6838 79.6809 36.4307 76.8019 36.2501C73.9228 36.0695 71.0636 36.8448 68.3757 37.8884C65.3218 39.0741 62.2934 40.7128 60.414 43.3881C58.1285 46.6416 57.9086 51.0156 59.0516 54.8199C59.7469 57.1341 62.1199 59.9612 63.8722 61.8208Z" fill="#2F2E41"/>
<path d="M143.074 217.943H0.374538C0.275204 217.943 0.179933 217.903 0.109694 217.833C0.0394542 217.763 0 217.669 0 217.57C0 217.471 0.0394542 217.376 0.109694 217.306C0.179933 217.236 0.275204 217.196 0.374538 217.196H143.074C143.173 217.196 143.268 217.236 143.338 217.306C143.409 217.376 143.448 217.471 143.448 217.57C143.448 217.669 143.409 217.763 143.338 217.833C143.268 217.903 143.173 217.943 143.074 217.943Z" fill="#CACACA"/>
<path d="M126.223 50.9154C125.892 50.9158 125.573 50.7911 125.331 50.5663L119.279 44.9665C119.025 44.7307 118.875 44.4039 118.862 44.058C118.85 43.7121 118.976 43.3754 119.212 43.1218C119.448 42.8681 119.776 42.7184 120.123 42.7055C120.471 42.6925 120.809 42.8174 121.064 43.0527L126.189 47.796L136.331 37.6928C136.452 37.5708 136.597 37.4739 136.756 37.4076C136.915 37.3414 137.086 37.3071 137.259 37.3068C137.431 37.3065 137.602 37.3401 137.762 37.4058C137.921 37.4714 138.066 37.5678 138.188 37.6894C138.31 37.811 138.407 37.9554 138.473 38.1143C138.538 38.2732 138.572 38.4435 138.572 38.6155C138.572 38.7874 138.537 38.9576 138.471 39.1162C138.404 39.2749 138.307 39.4189 138.184 39.54L127.15 50.533C127.028 50.6544 126.884 50.7507 126.725 50.8163C126.566 50.8819 126.395 50.9156 126.223 50.9154Z" fill="white"/>
</g>
<defs>
<clipPath id="clip0_41_1700">
<rect width="255" height="218" fill="white"/>
</clipPath>
</defs>
</svg>
