<svg width="251" height="177" viewBox="0 0 251 177" fill="none" xmlns="http://www.w3.org/2000/svg">
<g clip-path="url(#clip0_37_700)">
<path d="M128.191 176.625C135.74 176.625 141.86 170.501 141.86 162.947C141.86 155.393 135.74 149.269 128.191 149.269C120.641 149.269 114.522 155.393 114.522 162.947C114.522 170.501 120.641 176.625 128.191 176.625Z" fill="#F15758"/>
<path d="M209.851 175.856C217.498 173.558 225.628 171.162 231.693 165.699C237.112 160.817 240.771 153.362 238.526 146.041C236.285 138.734 229.574 133.862 222.645 131.439C218.716 130.065 214.604 129.302 210.494 128.703C206.027 128.052 201.539 127.519 197.054 127.006C178.892 124.927 160.662 123.657 142.364 123.196C133.335 122.969 124.308 122.974 115.278 123.105C107.213 123.223 98.7196 123.22 91.2382 119.79C85.4204 117.123 80.14 112.27 78.519 105.894C76.6477 98.5329 80.0992 91.037 85.0504 85.7061C87.6602 82.8961 90.7104 80.5311 93.857 78.3564C97.2705 75.9972 100.803 73.805 104.412 71.7588C111.52 67.7305 118.952 64.3023 126.63 61.5096C130.417 60.1316 134.261 58.9427 138.138 57.8459C141.411 56.9197 144.695 55.9923 147.859 54.7304C153.976 52.2911 159.793 48.1591 161.349 41.385C162.823 34.9648 160.337 27.9952 155.981 23.2258C150.94 17.7079 143.34 15.289 136.053 14.8976C127.873 14.4583 119.881 16.5069 112.193 19.1069C103.992 21.8799 95.9684 25.0685 87.5946 27.3146C79.2908 29.5398 70.8264 31.1142 62.2782 32.0236C58.0936 32.4695 53.7825 32.973 49.5729 32.6316C46.045 32.3455 42.535 31.3073 39.935 28.8019C37.7056 26.6536 36.3775 23.7012 36.8341 20.5854C36.917 20.0195 37.7761 20.2601 37.6937 20.8226C37.1379 24.6153 39.7143 28.1102 42.8892 29.9004C46.5585 31.9694 51.0236 31.9723 55.1088 31.7356C63.9667 31.2003 72.7646 29.9276 81.4114 27.9309C89.9078 25.989 98.1008 23.2131 106.284 20.2477C114.057 17.4313 122.003 14.6826 130.307 14.0726C137.511 13.5433 145.09 14.5936 151.367 18.3613C156.884 21.6725 160.94 27.1946 162.233 33.5314C163.496 39.7236 161.746 45.9561 157.062 50.2772C152.212 54.7512 145.562 56.664 139.364 58.4257C131.504 60.66 123.812 63.2719 116.367 66.6631C108.82 70.0909 101.582 74.1625 94.7339 78.833C88.1233 83.3534 81.5994 89.0411 79.5087 97.1054C78.5348 100.862 78.7146 104.846 80.3442 108.394C81.7931 111.549 84.1794 114.203 86.9594 116.25C93.5921 121.133 101.952 122.136 109.963 122.236C118.962 122.348 127.96 122.044 136.962 122.192C155.306 122.493 173.612 123.61 191.881 125.544C196.459 126.029 201.031 126.565 205.597 127.152C209.705 127.68 213.826 128.204 217.864 129.142C225.043 130.81 232.03 134.016 236.493 140.108C238.473 142.748 239.7 145.877 240.043 149.161C240.355 152.587 239.517 156.02 237.969 159.069C234.542 165.816 228.123 170.107 221.306 172.927C217.655 174.437 213.868 175.581 210.088 176.717C209.537 176.882 209.302 176.021 209.851 175.856Z" fill="#F2F2F2"/>
<path d="M37.4098 27.8021C41.3486 27.8021 44.5415 24.607 44.5415 20.6657C44.5415 16.7244 41.3486 13.5294 37.4098 13.5294C33.4711 13.5294 30.2781 16.7244 30.2781 20.6657C30.2781 24.607 33.4711 27.8021 37.4098 27.8021Z" fill="#F2F2F2"/>
<path d="M86.8861 41.3314C90.8249 41.3314 94.0179 38.1364 94.0179 34.1951C94.0179 30.2538 90.8249 27.0587 86.8861 27.0587C82.9474 27.0587 79.7544 30.2538 79.7544 34.1951C79.7544 38.1364 82.9474 41.3314 86.8861 41.3314Z" fill="#F2F2F2"/>
<path d="M128.785 14.2727C132.724 14.2727 135.917 11.0777 135.917 7.13636C135.917 3.19506 132.724 0 128.785 0C124.846 0 121.653 3.19506 121.653 7.13636C121.653 11.0777 124.846 14.2727 128.785 14.2727Z" fill="#F2F2F2"/>
<path d="M154.935 44.6022C158.874 44.6022 162.067 41.4072 162.067 37.4659C162.067 33.5246 158.874 30.3295 154.935 30.3295C150.996 30.3295 147.803 33.5246 147.803 37.4659C147.803 41.4072 150.996 44.6022 154.935 44.6022Z" fill="#F2F2F2"/>
<path d="M119.573 79.6893C123.512 79.6893 126.705 76.4943 126.705 72.553C126.705 68.6117 123.512 65.4166 119.573 65.4166C115.635 65.4166 112.442 68.6117 112.442 72.553C112.442 76.4943 115.635 79.6893 119.573 79.6893Z" fill="#F2F2F2"/>
<path d="M74.7028 96.6382C78.6415 96.6382 81.8345 93.4431 81.8345 89.5018C81.8345 85.5605 78.6415 82.3655 74.7028 82.3655C70.764 82.3655 67.571 85.5605 67.571 89.5018C67.571 93.4431 70.764 96.6382 74.7028 96.6382Z" fill="#F2F2F2"/>
<path d="M122.248 123.102C126.186 123.102 129.379 119.907 129.379 115.966C129.379 112.025 126.186 108.829 122.248 108.829C118.309 108.829 115.116 112.025 115.116 115.966C115.116 119.907 118.309 123.102 122.248 123.102Z" fill="#F2F2F2"/>
<path d="M173.358 137.97C177.297 137.97 180.49 134.775 180.49 130.833C180.49 126.892 177.297 123.697 173.358 123.697C169.42 123.697 166.227 126.892 166.227 130.833C166.227 134.775 169.42 137.97 173.358 137.97Z" fill="#F2F2F2"/>
<path d="M233.087 134.699C237.025 134.699 240.218 131.504 240.218 127.562C240.218 123.621 237.025 120.426 233.087 120.426C229.148 120.426 225.955 123.621 225.955 127.562C225.955 131.504 229.148 134.699 233.087 134.699Z" fill="#F2F2F2"/>
<path d="M126.727 20.2207C105.363 20.3717 87.8716 37.7434 87.5682 59.1187C87.5653 59.3161 87.5641 60.7037 87.5642 62.5187C87.5644 65.1798 88.6208 67.7319 90.5012 69.6136C92.3816 71.4954 94.932 72.5527 97.5914 72.553C98.9097 72.5527 100.215 72.2925 101.433 71.7872C102.651 71.2819 103.757 70.5415 104.689 69.6082C105.62 68.6749 106.359 67.5671 106.863 66.348C107.366 65.1289 107.625 63.8224 107.624 62.5033C107.623 61.2687 107.622 60.4142 107.622 60.3617C107.621 57.0582 108.48 53.8114 110.114 50.9406C111.747 48.0699 114.1 45.6742 116.939 43.9892C119.779 42.3041 123.008 41.3877 126.309 41.3302C129.61 41.2727 132.869 42.076 135.765 43.6611C138.662 45.2462 141.096 47.5585 142.829 50.3705C144.561 53.1826 145.533 56.3975 145.647 59.699C145.761 63.0006 145.015 66.275 143.481 69.2003C141.947 72.1255 139.678 74.6008 136.898 76.3826L136.901 76.3869C136.901 76.3869 122.63 85.5807 118.278 98.193L118.282 98.1939C117.517 100.778 117.129 103.459 117.131 106.153C117.131 107.261 117.196 116.953 117.322 124.82C117.366 127.534 118.475 130.123 120.409 132.026C122.343 133.93 124.947 134.997 127.66 134.996C129.023 134.996 130.373 134.726 131.632 134.202C132.89 133.678 134.033 132.91 134.994 131.943C135.955 130.975 136.715 129.827 137.231 128.565C137.747 127.302 138.008 125.95 137.999 124.586C137.956 117.381 137.932 108.992 137.932 108.383C137.932 100.639 145.398 92.9229 151.531 87.891C158.593 82.0966 163.675 74.2002 165.716 65.2928C166.168 63.4589 166.417 61.5809 166.459 59.6927C166.459 54.485 165.429 49.3288 163.429 44.5212C161.429 39.7135 158.497 35.3495 154.804 31.6804C151.111 28.0114 146.729 25.1099 141.91 23.1431C137.091 21.1763 131.931 20.1831 126.727 20.2207Z" fill="#F15758"/>
<path d="M250.646 177H0.353772C0.260111 177 0.170381 176.962 0.104248 176.896C0.0381158 176.83 0.000976562 176.74 0.000976562 176.646C0.000976562 176.552 0.0381158 176.462 0.104248 176.396C0.170381 176.33 0.260111 176.292 0.353772 176.292H250.646C250.74 176.292 250.83 176.329 250.896 176.396C250.963 176.462 251 176.552 251 176.646C251 176.74 250.963 176.83 250.896 176.896C250.83 176.963 250.74 177 250.646 177Z" fill="#3F3D56"/>
<path d="M186.747 81.1749C191.67 81.1749 195.662 77.1811 195.662 72.2544C195.662 67.3278 191.67 63.334 186.747 63.334C181.824 63.334 177.832 67.3278 177.832 72.2544C177.832 77.1811 181.824 81.1749 186.747 81.1749Z" fill="#2F2E41"/>
<path d="M170.274 173.095H166.631L164.898 159.034H170.275L170.274 173.095Z" fill="#A0616A"/>
<path d="M164.029 172.053H171.054V176.48H159.605C159.605 175.899 159.719 175.323 159.942 174.786C160.164 174.249 160.49 173.761 160.901 173.35C161.311 172.939 161.799 172.613 162.336 172.39C162.872 172.168 163.448 172.053 164.029 172.053Z" fill="#2F2E41"/>
<path d="M198.503 173.095H194.861L193.127 159.034H198.504L198.503 173.095Z" fill="#A0616A"/>
<path d="M192.258 172.053H199.284V176.48H187.835C187.835 175.899 187.949 175.323 188.171 174.786C188.394 174.249 188.719 173.761 189.13 173.35C189.541 172.939 190.029 172.613 190.565 172.39C191.102 172.168 191.677 172.053 192.258 172.053Z" fill="#2F2E41"/>
<path d="M185.392 81.227C189.423 81.227 192.691 77.9572 192.691 73.9238C192.691 69.8904 189.423 66.6206 185.392 66.6206C181.361 66.6206 178.094 69.8904 178.094 73.9238C178.094 77.9572 181.361 81.227 185.392 81.227Z" fill="#A0616A"/>
<path d="M189.743 104.787L193.008 97.2793C193.801 95.518 194.029 93.5538 193.659 91.6577C193.289 89.7616 192.34 88.0272 190.943 86.6937C190.656 86.4099 190.351 86.1447 190.031 85.8997C188.419 84.6384 186.434 83.9509 184.388 83.9462C183.012 83.9515 181.654 84.2538 180.406 84.8323C180.299 84.8798 180.195 84.9304 180.088 84.9809C179.883 85.0791 179.681 85.1861 179.485 85.2961C178.205 86.0311 177.117 87.0567 176.306 88.2901C175.496 89.5235 174.987 90.9302 174.819 92.3968L173.378 104.481C173.016 105.43 160.083 139.684 164.606 165.836C164.654 166.115 164.79 166.372 164.995 166.568C165.199 166.764 165.46 166.89 165.741 166.927L170.326 167.552C170.661 167.597 171.001 167.515 171.277 167.32C171.553 167.125 171.746 166.833 171.815 166.502L179.508 129.806C179.556 129.578 179.679 129.373 179.858 129.223C180.036 129.073 180.259 128.987 180.492 128.98C180.725 128.972 180.953 129.042 181.141 129.18C181.329 129.317 181.466 129.514 181.529 129.738L192.399 168.328C192.477 168.608 192.644 168.855 192.875 169.031C193.106 169.208 193.389 169.303 193.68 169.303C193.767 169.302 193.853 169.294 193.938 169.279L199.54 168.2C199.865 168.139 200.156 167.958 200.356 167.694C200.556 167.429 200.649 167.1 200.618 166.77C199.795 157.584 195.421 111.576 189.743 104.787Z" fill="#2F2E41"/>
<path d="M157.029 80.0015C156.978 80.4357 157.023 80.8757 157.161 81.2906C157.299 81.7054 157.525 82.085 157.826 82.4026C158.126 82.7202 158.492 82.9681 158.898 83.1288C159.304 83.2896 159.741 83.3592 160.177 83.3328L164.256 93.143L167.342 88.5656L162.995 79.9514C162.902 79.2213 162.545 78.5507 161.991 78.0665C161.437 77.5824 160.725 77.3184 159.99 77.3246C159.254 77.3307 158.547 77.6067 158.001 78.1C157.455 78.5934 157.109 79.27 157.029 80.0015Z" fill="#A0616A"/>
<path d="M184.988 114.665C185.421 114.613 185.838 114.467 186.21 114.236C186.581 114.006 186.897 113.697 187.135 113.33C187.374 112.964 187.53 112.55 187.591 112.118C187.653 111.685 187.619 111.244 187.492 110.826L196.075 104.57L190.907 102.633L183.549 108.871C182.861 109.131 182.292 109.635 181.951 110.287C181.609 110.939 181.519 111.693 181.696 112.408C181.873 113.122 182.307 113.746 182.913 114.162C183.52 114.578 184.258 114.757 184.988 114.665Z" fill="#A0616A"/>
<path d="M170.995 99.6833C170.666 99.683 170.338 99.6506 170.015 99.5866C169.234 99.4379 168.502 99.0993 167.883 98.6007C167.264 98.102 166.777 97.4587 166.465 96.7273L160.749 89.7535C160.628 89.6061 160.54 89.4345 160.491 89.2503C160.442 89.066 160.433 88.8734 160.464 88.6853C160.495 88.4972 160.566 88.318 160.672 88.1596C160.778 88.0012 160.917 87.8674 161.079 87.767L165.146 85.2483C165.296 85.1553 165.463 85.0929 165.637 85.0648C165.811 85.0368 165.99 85.0435 166.161 85.0847C166.333 85.1259 166.495 85.2007 166.638 85.3049C166.78 85.409 166.901 85.5404 166.993 85.6914L171.021 92.3324L178.735 86.6273C179.35 86.305 180.059 86.2146 180.735 86.3726C181.41 86.5307 182.006 86.9265 182.414 87.4879C182.821 88.0493 183.014 88.7388 182.955 89.4303C182.897 90.1219 182.592 90.7693 182.096 91.2545L174.396 98.2828C173.492 99.1803 172.269 99.6837 170.995 99.6833Z" fill="#2F2E41"/>
<path d="M191.841 110.172C191.83 110.172 191.82 110.172 191.809 110.171C191.622 110.167 191.437 110.123 191.268 110.042C191.098 109.962 190.947 109.847 190.825 109.704L187.21 105.484C187.087 105.34 186.996 105.172 186.942 104.99C186.889 104.809 186.875 104.618 186.901 104.43C186.926 104.243 186.992 104.063 187.092 103.902C187.193 103.742 187.326 103.605 187.484 103.5L194.253 98.9838L188.12 91.6059C187.764 91.0107 187.633 90.307 187.752 89.6233C187.871 88.9396 188.231 88.3215 188.768 87.882C189.305 87.4425 189.982 87.2109 190.675 87.2295C191.368 87.2481 192.032 87.5157 192.544 87.9834L199.998 95.2722C200.585 95.8084 201.032 96.4791 201.303 97.2267C201.574 97.9743 201.659 98.7764 201.551 99.5642C201.444 100.352 201.147 101.102 200.686 101.75C200.226 102.397 199.615 102.923 198.906 103.283L192.814 109.751C192.689 109.884 192.538 109.99 192.37 110.062C192.203 110.134 192.023 110.171 191.841 110.172Z" fill="#2F2E41"/>
<path d="M183.537 94.6205C183.479 94.6205 183.421 94.6168 183.363 94.6095C183.111 94.5788 182.874 94.4766 182.678 94.3148C182.483 94.1531 182.338 93.9386 182.26 93.6969L179.544 85.3625C179.476 85.1518 179.486 84.9235 179.573 84.7199C179.66 84.5163 179.818 84.3512 180.017 84.255L180.106 84.2133C180.186 84.1753 180.265 84.1377 180.346 84.1016C181.612 83.5138 182.991 83.2071 184.388 83.2028C186.201 83.2061 187.973 83.739 189.487 84.7361C189.69 84.8713 189.832 85.0809 189.882 85.3198C189.932 85.5586 189.887 85.8076 189.755 86.013L184.659 94.0021C184.539 94.1918 184.374 94.3481 184.177 94.4562C183.981 94.5644 183.761 94.6209 183.537 94.6205Z" fill="#E6E6E6"/>
<path d="M193.775 68.272C195.387 68.272 196.693 66.9652 196.693 65.3531C196.693 63.741 195.387 62.4341 193.775 62.4341C192.164 62.4341 190.858 63.741 190.858 65.3531C190.858 66.9652 192.164 68.272 193.775 68.272Z" fill="#2F2E41"/>
<path d="M183.775 62.1446C181.726 62.1446 179.761 62.9591 178.312 64.409C176.863 65.8588 176.049 67.8252 176.049 69.8756V73.1465H180.07L181.993 69.8756L182.569 73.1465H194.77L191.502 69.8756C191.502 67.8252 190.688 65.8588 189.239 64.409C187.79 62.9591 185.825 62.1446 183.775 62.1446Z" fill="#2F2E41"/>
<path d="M195.275 63.3536C195.597 62.3443 196.265 61.481 197.161 60.9157C198.057 60.3503 199.123 60.119 200.172 60.2625C202.031 60.5735 203.501 62.0687 204.377 63.7388C205.252 65.4089 205.657 67.278 206.246 69.0696C206.834 70.8613 207.669 72.6627 209.156 73.8225C210.642 74.9822 212.923 75.2968 214.383 74.1038C214.216 75.3471 213.663 76.5066 212.801 77.4181C211.94 78.3297 210.814 78.9472 209.583 79.1833C208.351 79.4193 207.077 79.2621 205.94 78.7338C204.803 78.2054 203.86 77.3327 203.246 76.2391C202.476 74.8678 202.277 73.2606 202.049 71.7042C201.82 70.1479 201.523 68.5375 200.604 67.2617C199.684 65.9859 197.963 65.1527 196.502 65.7338L195.275 63.3536Z" fill="#2F2E41"/>
<path d="M100.423 67.8068C97.7633 67.8065 95.2129 66.7492 93.3325 64.8674C91.452 62.9857 90.3956 60.4336 90.3954 57.7725C90.3952 55.9575 90.3966 54.5699 90.3993 54.3725C90.4838 48.156 92.0484 42.0492 94.9633 36.5588C90.1742 43.1191 87.5409 51.0066 87.4278 59.1301C87.425 59.3275 87.4237 60.7151 87.4238 62.5301C87.424 65.1912 88.4805 67.7433 90.3609 69.625C92.2413 71.5068 94.7917 72.5641 97.4511 72.5644C99.6364 72.5635 101.762 71.849 103.504 70.5293C105.247 69.2095 106.511 67.3567 107.105 65.2524C105.269 66.9 102.889 67.8098 100.423 67.8068Z" fill="#3F3D56"/>
<path d="M127.406 41.3639C130.481 41.5109 133.474 42.4022 136.128 43.9615C138.782 45.5208 141.019 47.7015 142.645 50.3162C144.272 52.9309 145.24 55.9016 145.467 58.9731C145.693 62.0447 145.171 65.1254 143.946 67.9507C145.718 65.8677 147.021 63.4267 147.765 60.7942C148.51 58.1616 148.678 55.3995 148.259 52.696C147.839 49.9925 146.842 47.4112 145.336 45.1282C143.829 42.8452 141.849 40.914 139.529 39.4665C137.209 38.0189 134.604 37.0889 131.892 36.7399C129.18 36.3909 126.425 36.6312 123.815 37.4442C121.204 38.2573 118.8 39.624 116.765 41.4513C114.73 43.2786 113.113 45.5234 112.024 48.0328C113.906 45.8167 116.272 44.063 118.939 42.9067C121.606 41.7505 124.503 41.2226 127.406 41.3639Z" fill="#3F3D56"/>
<path d="M130.491 130.25C127.778 130.251 125.174 129.184 123.24 127.28C121.306 125.377 120.197 122.788 120.153 120.074C120.027 112.207 119.962 102.515 119.962 101.407C119.961 98.7124 120.348 96.0315 121.113 93.4478L121.11 93.4469C121.561 92.15 122.107 90.8878 122.742 89.6703C120.792 92.2704 119.241 95.1467 118.138 98.2044L118.142 98.2053C117.377 100.789 116.989 103.47 116.991 106.165C116.991 107.272 117.056 116.965 117.182 124.832C117.226 127.546 118.334 130.134 120.268 132.038C122.202 133.942 124.807 135.008 127.52 135.008C129.757 135.007 131.933 134.281 133.723 132.938C135.512 131.595 136.818 129.708 137.445 127.559C135.544 129.294 133.064 130.254 130.491 130.25Z" fill="#3F3D56"/>
<path d="M37.6023 173.231L41.2452 173.23L42.9785 159.169L37.6014 159.17L37.6023 173.231Z" fill="#FFB8B8"/>
<path d="M48.2714 176.615L36.8217 176.616L36.8215 172.189L43.8475 172.189C45.0207 172.189 46.1459 172.655 46.9755 173.485C47.8052 174.315 48.2713 175.441 48.2714 176.615Z" fill="#2F2E41"/>
<path d="M24.5275 173.231L28.1703 173.23L29.9036 159.169L24.5266 159.17L24.5275 173.231Z" fill="#FFB8B8"/>
<path d="M35.1965 176.615L23.7469 176.616L23.7467 172.189L30.7726 172.189C31.9459 172.189 33.0711 172.655 33.9007 173.485C34.7304 174.315 35.1965 175.441 35.1965 176.615Z" fill="#2F2E41"/>
<path d="M27.7111 168.906L24.1526 168.719C23.9691 168.709 23.7894 168.663 23.6238 168.584C23.4582 168.504 23.3101 168.392 23.1879 168.255C23.0658 168.117 22.9721 167.957 22.9124 167.783C22.8526 167.609 22.8279 167.425 22.8397 167.242L27.0927 120.122L46.6786 125.411L48.5656 124.896L42.6646 166.609C42.6143 166.923 42.4586 167.21 42.2231 167.423C41.9877 167.637 41.6865 167.763 41.3695 167.782L37.5336 167.961C37.3418 167.972 37.1498 167.942 36.9699 167.875C36.79 167.808 36.626 167.704 36.4882 167.57C36.3505 167.436 36.2421 167.274 36.1698 167.096C36.0975 166.918 36.0629 166.727 36.0681 166.535L36.7632 141.499C36.7664 141.384 36.7262 141.271 36.6505 141.183C36.5748 141.096 36.469 141.04 36.3541 141.026C36.2391 141.013 36.1233 141.043 36.0294 141.111C35.9356 141.178 35.8705 141.279 35.847 141.392L29.1441 167.8C29.0808 168.114 28.9109 168.395 28.6633 168.597C28.4157 168.799 28.1058 168.909 27.7863 168.908C27.7614 168.908 27.7363 168.908 27.7111 168.906Z" fill="#2F2E41"/>
<path d="M38.2565 81.5685C42.2873 81.5685 45.5549 78.2988 45.5549 74.2653C45.5549 70.2319 42.2873 66.9622 38.2565 66.9622C34.2256 66.9622 30.958 70.2319 30.958 74.2653C30.958 78.2988 34.2256 81.5685 38.2565 81.5685Z" fill="#FFB8B8"/>
<path d="M26.105 95.7217L26.9074 113.047L27.1975 119.351C27.2091 119.625 27.3022 119.89 27.4649 120.111C27.6277 120.332 27.8527 120.5 28.1111 120.592L46.9317 127.414C47.0838 127.471 47.2449 127.499 47.4071 127.498C47.5924 127.499 47.7761 127.462 47.9471 127.391C48.118 127.319 48.2728 127.213 48.4022 127.081C48.5315 126.948 48.6328 126.79 48.6999 126.617C48.767 126.444 48.7987 126.26 48.7929 126.074L48.0213 94.9218C47.9706 92.3659 47.0304 89.9078 45.3627 87.9713C43.695 86.0347 41.4043 84.741 38.8856 84.3133C38.7036 84.2855 38.5184 84.2577 38.3332 84.233C36.7714 84.039 35.186 84.1898 33.6887 84.6748C32.1914 85.1598 30.8185 85.9673 29.6666 87.0403C28.4738 88.1381 27.5366 89.4846 26.9212 90.9847C26.3057 92.4849 26.0271 94.1019 26.105 95.7217Z" fill="#CCCCCC"/>
<path d="M55.9224 123.957C55.4772 123.819 55.0705 123.579 54.7347 123.255C54.399 122.932 54.1434 122.534 53.9884 122.094C53.8334 121.655 53.7833 121.185 53.8421 120.722C53.9009 120.259 54.0669 119.817 54.327 119.43L47.9447 110.937L53.4523 110.596L58.6686 118.713C59.2271 119.145 59.6157 119.76 59.7663 120.45C59.9169 121.14 59.8198 121.861 59.4922 122.487C59.1646 123.113 58.6272 123.603 57.9745 123.872C57.3217 124.141 56.5952 124.171 55.9224 123.957Z" fill="#FFB8B8"/>
<path d="M51.4349 117.893C51.2658 117.824 51.112 117.723 50.9824 117.594C50.8528 117.466 50.7499 117.313 50.6798 117.144L41.0644 94.2202C40.8757 93.7714 40.7773 93.2898 40.7747 92.8028C40.7721 92.3159 40.8655 91.8333 41.0494 91.3825C41.2334 90.9317 41.5043 90.5216 41.8467 90.1756C42.1891 89.8296 42.5962 89.5546 43.0449 89.3661C43.4936 89.1777 43.975 89.0796 44.4616 89.0774C44.9482 89.0752 45.4304 89.169 45.8808 89.3534C46.3312 89.5378 46.7408 89.8092 47.0863 90.1521C47.4318 90.4949 47.7063 90.9026 47.8943 91.3517L57.5097 114.276C57.6518 114.616 57.6534 114.998 57.5141 115.339C57.3748 115.68 57.106 115.952 56.7667 116.095L52.4979 117.888C52.3299 117.959 52.1494 117.996 51.9669 117.997C51.7844 117.998 51.6036 117.963 51.4349 117.893Z" fill="#CCCCCC"/>
<path d="M35.9099 117.084L45.1453 99.3895C45.3234 99.0492 45.6291 98.7935 45.9954 98.6785C46.3616 98.5635 46.7586 98.5985 47.099 98.776L60.5042 105.782C60.8443 105.96 61.0998 106.266 61.2148 106.632C61.3297 106.999 61.2947 107.396 61.1173 107.737L51.882 125.431C51.7039 125.772 51.3981 126.027 51.0319 126.142C50.6656 126.257 50.2687 126.222 49.9282 126.045L36.5231 119.039C36.183 118.861 35.9274 118.555 35.8125 118.189C35.6975 117.822 35.7326 117.425 35.9099 117.084Z" fill="#3F3D56"/>
<path d="M42.1035 109C41.9393 108.564 41.6755 108.171 41.333 107.855C40.9905 107.539 40.5788 107.307 40.1309 107.178C39.6829 107.049 39.2111 107.027 38.753 107.113C38.2949 107.199 37.8633 107.391 37.4925 107.674L28.6437 101.8L28.6287 107.322L37.034 112.053C37.4979 112.585 38.1344 112.937 38.8317 113.047C39.5291 113.156 40.2427 113.017 40.8475 112.653C41.4523 112.289 41.9097 111.723 42.1393 111.055C42.369 110.387 42.3563 109.66 42.1035 109Z" fill="#FFB8B8"/>
<path d="M30.9155 110.242L23.6837 104.51C22.9014 104.247 22.1945 103.798 21.6237 103.201C21.0529 102.605 20.6353 101.879 20.4066 101.085C20.178 100.292 20.1452 99.4547 20.3111 98.6458C20.477 97.8368 20.8366 97.0802 21.359 96.441L27.9253 87.8299C28.3816 87.2719 29.0233 86.8969 29.7331 86.7734C30.443 86.6499 31.1736 86.7862 31.7913 87.1573C32.409 87.5284 32.8726 88.1096 33.0974 88.7946C33.3222 89.4796 33.2931 90.2226 33.0154 90.8879L27.82 99.3921L35.4551 103.016C35.6327 103.1 35.7903 103.221 35.9177 103.371C36.045 103.521 36.1392 103.696 36.1939 103.885C36.2486 104.073 36.2626 104.272 36.2351 104.466C36.2075 104.661 36.139 104.848 36.034 105.014L32.952 109.895C32.8478 110.059 32.7102 110.2 32.5481 110.308C32.386 110.417 32.203 110.489 32.011 110.522C32.0034 110.524 31.9957 110.525 31.988 110.526C31.7993 110.555 31.6068 110.544 31.4223 110.495C31.2379 110.446 31.0654 110.36 30.9155 110.242Z" fill="#CCCCCC"/>
<path d="M32.7415 79.1557C32.7102 79.064 32.7003 78.9664 32.7125 78.8703C32.7247 78.7742 32.7587 78.6821 32.812 78.6012C32.8652 78.5203 32.9363 78.4527 33.0197 78.4035C33.1031 78.3543 33.1966 78.3249 33.2932 78.3174C33.4908 78.3282 33.6843 78.3789 33.8618 78.4666C34.0393 78.5542 34.1973 78.677 34.3261 78.8274C34.5902 79.1321 34.8977 79.3963 35.2387 79.6115C35.5918 79.7896 36.0706 79.7642 36.2719 79.4247C36.4609 79.1059 36.3314 78.679 36.217 78.3086C35.9258 77.3664 35.7629 76.3893 35.7326 75.4035C35.6997 74.3033 35.8548 73.155 36.4635 72.2968C37.2492 71.1893 38.654 70.7688 39.9835 70.7993C41.313 70.8298 42.6209 71.2404 43.9378 71.5C44.3924 71.5896 44.9268 71.6355 45.2308 71.2829C45.5542 70.908 45.4354 70.3012 45.2979 69.795C44.941 68.4815 44.5624 67.1235 43.7333 66.0626C42.8368 64.9603 41.5562 64.2389 40.1494 64.0436C38.7987 63.8762 37.4277 64.0319 36.1489 64.4981C34.0655 65.1551 32.2323 66.4331 30.8944 68.161C29.5152 69.9985 28.9192 72.3078 29.2368 74.5838C29.5471 76.5661 30.5968 78.357 32.1744 79.5954L32.7415 79.1557Z" fill="#2F2E41"/>
<path d="M125.179 173.289C123.237 172.442 121.519 171.156 120.159 169.531C118.799 167.907 117.835 165.988 117.343 163.926C116.851 161.865 116.845 159.717 117.324 157.653C117.804 155.589 118.756 153.664 120.107 152.032C118.541 153.175 117.237 154.639 116.28 156.326C115.323 158.013 114.736 159.884 114.557 161.815C114.378 163.746 114.611 165.694 115.242 167.528C115.873 169.362 116.886 171.041 118.214 172.453C119.543 173.865 121.157 174.978 122.948 175.719C124.74 176.459 126.668 176.81 128.605 176.748C130.543 176.686 132.445 176.212 134.185 175.358C135.925 174.504 137.464 173.289 138.699 171.795C136.773 173.204 134.51 174.083 132.138 174.345C129.766 174.607 127.367 174.243 125.179 173.289Z" fill="#3F3D56"/>
</g>
<defs>
<clipPath id="clip0_37_700">
<rect width="251" height="177" fill="white"/>
</clipPath>
</defs>
</svg>
